<svg xmlns="http://www.w3.org/2000/svg" xmlns:xlink="http://www.w3.org/1999/xlink" xmlns:lucid="lucid" width="2601" height="802"><g transform="translate(221 -498.9999999999999)" lucid:page-tab-id="0_0"><path d="M-500 0h3000v1500H-500z" fill="#fff"/><path d="M-220 706a6 6 0 0 1 6-6h148a6 6 0 0 1 6 6v108a6 6 0 0 1-6 6h-148a6 6 0 0 1-6-6z" stroke="#3a414a" stroke-width="2" fill="#fff"/><use xlink:href="#a" transform="matrix(1,0,0,1,-208,712) translate(49.51234567901234 53.77777777777778)"/><path d="M440 506a6 6 0 0 1 6-6h209a6 6 0 0 1 6 6v568a6 6 0 0 1-6 6H446a6 6 0 0 1-6-6z" stroke="#3a414a" stroke-width="2" fill="#fff"/><use xlink:href="#b" transform="matrix(1,0,0,1,452,512) translate(0 17.77777777777778)"/><use xlink:href="#c" transform="matrix(1,0,0,1,452,512) translate(81.29629629629628 17.77777777777778)"/><path d="M460 546a6 6 0 0 1 6-6h168a6 6 0 0 1 6 6v68a6 6 0 0 1-6 6H466a6 6 0 0 1-6-6z" stroke="#3a414a" stroke-width="2" fill="#fff"/><use xlink:href="#d" transform="matrix(1,0,0,1,472,552) translate(38.15432098765432 31.77777777777778)"/><path d="M460 646a6 6 0 0 1 6-6h168a6 6 0 0 1 6 6v68a6 6 0 0 1-6 6H466a6 6 0 0 1-6-6z" fill="#fff"/><path d="M484.67 640h18.66m9.34 0h18.66m9.34 0h18.66m9.34 0h18.66m9.34 0h18.66m9.34 0H634l.94.07.9.22.88.35.8.5.72.6.6.72.5.8.37.88.23.9.07.95v11.33m0 11.34v22.66m0 11.34V714l-.07.94-.22.9-.35.88-.5.8-.6.72-.72.6-.8.5-.88.37-.9.23-.95.07h-9.33m-9.34 0h-18.66m-9.34 0h-18.66m-9.34 0h-18.66m-9.34 0h-18.66m-9.34 0h-18.66m-9.34 0H466l-.94-.07-.9-.22-.88-.35-.8-.5-.72-.6-.6-.72-.5-.8-.37-.88-.23-.9-.07-.95v-11.33m0-11.34v-22.66m0-11.34V646l.07-.94.22-.9.35-.88.5-.8.6-.72.72-.6.8-.5.88-.37.9-.23.95-.07h9.33" stroke="#3a414a" stroke-width="2" fill="none"/><use xlink:href="#e" transform="matrix(1,0,0,1,472,652) translate(43.4320987654321 31.77777777777778)"/><path d="M460 741a6 6 0 0 1 6-6h168a6 6 0 0 1 6 6v68a6 6 0 0 1-6 6H466a6 6 0 0 1-6-6z" fill="#fff"/><path d="M484.67 735h18.66m9.34 0h18.66m9.34 0h18.66m9.34 0h18.66m9.34 0h18.66m9.34 0H634l.94.07.9.22.88.35.8.5.72.6.6.72.5.8.37.88.23.9.07.95v11.33m0 11.34v22.66m0 11.34V809l-.07.94-.22.9-.35.88-.5.8-.6.72-.72.6-.8.5-.88.37-.9.23-.95.07h-9.33m-9.34 0h-18.66m-9.34 0h-18.66m-9.34 0h-18.66m-9.34 0h-18.66m-9.34 0h-18.66m-9.34 0H466l-.94-.07-.9-.22-.88-.35-.8-.5-.72-.6-.6-.72-.5-.8-.37-.88-.23-.9-.07-.95v-11.33m0-11.34v-22.66m0-11.34V741l.07-.94.22-.9.35-.88.5-.8.6-.72.72-.6.8-.5.88-.37.9-.23.95-.07h9.33" stroke="#3a414a" stroke-width="2" fill="none"/><use xlink:href="#f" transform="matrix(1,0,0,1,472,747) translate(51.51851851851852 31.77777777777778)"/><path d="M460 926a6 6 0 0 1 6-6h168a6 6 0 0 1 6 6v68a6 6 0 0 1-6 6H466a6 6 0 0 1-6-6z" fill="#fff"/><path d="M484.67 920h18.66m9.34 0h18.66m9.34 0h18.66m9.34 0h18.66m9.34 0h18.66m9.34 0H634l.94.07.9.22.88.35.8.5.72.6.6.72.5.8.37.88.23.9.07.95v11.33m0 11.34v22.66m0 11.34V994l-.07.94-.22.9-.35.88-.5.8-.6.72-.72.6-.8.5-.88.37-.9.23-.95.07h-9.33m-9.34 0h-18.66m-9.34 0h-18.66m-9.34 0h-18.66m-9.34 0h-18.66m-9.34 0h-18.66m-9.34 0H466l-.94-.07-.9-.22-.88-.35-.8-.5-.72-.6-.6-.72-.5-.8-.37-.88-.23-.9-.07-.95v-11.33m0-11.34v-22.66m0-11.34V926l.07-.94.22-.9.35-.88.5-.8.6-.72.72-.6.8-.5.88-.37.9-.23.95-.07h9.33" stroke="#3a414a" stroke-width="2" fill="none"/><use xlink:href="#g" transform="matrix(1,0,0,1,472,932) translate(42.2283950617284 21.27777777777778)"/><use xlink:href="#h" transform="matrix(1,0,0,1,472,932) translate(24.944444444444436 47.94444444444444)"/><path d="M220 706a6 6 0 0 1 6-6h148a6 6 0 0 1 6 6v108a6 6 0 0 1-6 6H226a6 6 0 0 1-6-6z" stroke="#3a414a" stroke-width="2" fill="#fff"/><use xlink:href="#i" transform="matrix(1,0,0,1,232,712) translate(48.339506172839506 53.77777777777778)"/><path d="M-58.5 760h41.12" stroke="#3a414a" fill="none"/><path d="M-58.5 760.48h-.5v-.96h.5z" stroke="#3a414a" stroke-width=".05" fill="#3a414a"/><path d="M-2.62 760l-14.26 4.63v-9.26z" stroke="#3a414a" fill="#3a414a"/><path d="M0 706a6 6 0 0 1 6-6h148a6 6 0 0 1 6 6v108a6 6 0 0 1-6 6H6a6 6 0 0 1-6-6z" stroke="#3a414a" stroke-width="2" fill="#fff"/><use xlink:href="#g" transform="matrix(1,0,0,1,12,712) translate(32.2283950617284 38.77777777777778)"/><use xlink:href="#j" transform="matrix(1,0,0,1,12,712) translate(30.43827160493828 65.44444444444446)"/><path d="M161.5 760h41.12" stroke="#3a414a" fill="none"/><path d="M161.5 760.48h-.5v-.96h.5z" stroke="#3a414a" stroke-width=".05" fill="#3a414a"/><path d="M217.38 760l-14.26 4.63v-9.26z" stroke="#3a414a" fill="#3a414a"/><path d="M381.5 760h.03l.52-.04.5-.06.52-.07.5-.1.52-.12.5-.13.5-.17.53-.2.53-.2.53-.27.54-.28.56-.33.6-.37.6-.42.6-.47.67-.54.7-.62.7-.7.78-.83.82-.96.88-1.1.96-1.32 1.05-1.57 1.15-1.9 1.3-2.33 1.44-2.93 1.66-3.75 1.96-4.98 2.4-6.9 3.12-10.42 4.94-19.45 16.7-72.35 3.12-10.42 2.4-6.9 1.96-4.97 1.66-3.74 1.45-2.93 1.3-2.34 1.15-1.9 1.04-1.58.7-1" stroke="#3a414a" stroke-linejoin="round" fill="none"/><path d="M381.52 760.46H381v-.94h.5z" stroke="#3a414a" stroke-width=".05" fill="#3a414a"/><path d="M457.63 580.86l-9.67 11.47-4.9-7.88z" stroke="#3a414a" fill="#3a414a"/><path d="M381.5 760l7.9.26 6.54.62 5.48.88 5.05 1.15 5.4 1.63 21.66 7.56 5.05 1.14 4.1.66" stroke="#3a414a" stroke-linejoin="round" fill="none"/><path d="M381.53 759.54l-.03.95-.5-.02v-.96z" stroke="#3a414a" stroke-width=".05" fill="#3a414a"/><path d="M457.4 774.9l-14.56 3.65.63-9.25z" stroke="#3a414a" fill="#3a414a"/><path d="M381.5 760l.44.04.47.05.47.06.46.08.46.1.46.14.46.15.48.18.48.2.5.25.5.26.5.3.55.35.55.38.58.44.6.5.64.58.68.66.7.77.78.9.82 1.03.9 1.23.97 1.47 1.08 1.78 1.2 2.2 1.35 2.73 1.56 3.52 1.83 4.62 2.2 6.34 2.78 9.28 3.9 15.37 22.2 103.5 2.78 9.3 2.2 6.33 1.83 4.62 1.56 3.5 1.35 2.75 1.2 2.2 1.08 1.77.9 1.34" stroke="#3a414a" stroke-linejoin="round" fill="none"/><path d="M381.52 759.54l-.02.95-.5-.02v-.96z" stroke="#3a414a" stroke-width=".05" fill="#3a414a"/><path d="M457.66 959.1l-14.43-4.1 5.16-7.7z" stroke="#3a414a" fill="#3a414a"/><path d="M740 506a6 6 0 0 1 6-6h148a6 6 0 0 1 6 6v568a6 6 0 0 1-6 6H746a6 6 0 0 1-6-6z" stroke="#3a414a" stroke-width="2" fill="#fff"/><use xlink:href="#k" transform="matrix(1,0,0,1,752,511.9999999999999) translate(0 17.77777777777778)"/><path d="M662.5 790h60.12" stroke="#3a414a" stroke-linejoin="round" fill="none"/><path d="M662.5 790.48h-.5v-.96h.5z" stroke="#3a414a" stroke-width=".05" fill="#3a414a"/><path d="M737.38 790l-14.26 4.63v-9.26z" stroke="#3a414a" fill="#3a414a"/><path d="M460 836a6 6 0 0 1 6-6h168a6 6 0 0 1 6 6v68a6 6 0 0 1-6 6H466a6 6 0 0 1-6-6z" fill="#fff"/><path d="M484.67 830h18.66m9.34 0h18.66m9.34 0h18.66m9.34 0h18.66m9.34 0h18.66m9.34 0H634l.94.07.9.22.88.35.8.5.72.6.6.72.5.8.37.88.23.9.07.95v11.33m0 11.34v22.66m0 11.34V904l-.07.94-.22.9-.35.88-.5.8-.6.72-.72.6-.8.5-.88.37-.9.23-.95.07h-9.33m-9.34 0h-18.66m-9.34 0h-18.66m-9.34 0h-18.66m-9.34 0h-18.66m-9.34 0h-18.66m-9.34 0H466l-.94-.07-.9-.22-.88-.35-.8-.5-.72-.6-.6-.72-.5-.8-.37-.88-.23-.9-.07-.95v-11.33m0-11.34v-22.66m0-11.34V836l.07-.94.22-.9.35-.88.5-.8.6-.72.72-.6.8-.5.88-.37.9-.23.95-.07h9.33" stroke="#3a414a" stroke-width="2" fill="none"/><use xlink:href="#l" transform="matrix(1,0,0,1,472,842) translate(25.006172839506178 31.77777777777778)"/><use xlink:href="#m" transform="matrix(1,0,0,1,472,842) translate(90.37654320987654 31.77777777777778)"/><path d="M381.5 760l.43.02.9.06.9.1.85.14.86.18.85.22.83.25.85.3.84.35.86.4.87.44.88.5.9.6.94.65.97.76 1 .85 1.06 1 1.1 1.13 1.2 1.33 1.27 1.56 1.38 1.87 1.53 2.25 1.7 2.8 1.98 3.6 2.37 4.83 3.12 7.17 6.12 16.22 9.98 27.08 3.12 7.17 2.37 4.83 1.97 3.6 1.72 2.8 1.52 2.26 1.4 1.88 1.26 1.56 1.2 1.33 1.1 1.13.6.55" stroke="#3a414a" stroke-linejoin="round" fill="none"/><path d="M381.52 759.54l-.02.95-.5-.02v-.96z" stroke="#3a414a" stroke-width=".05" fill="#3a414a"/><path d="M457.5 869.37l-14.93-1.3 3.62-8.55z" stroke="#3a414a" fill="#3a414a"/><path d="M979 506a6 6 0 0 1 6-6h209a6 6 0 0 1 6 6v568a6 6 0 0 1-6 6H985a6 6 0 0 1-6-6z" stroke="#3a414a" stroke-width="2" fill="#fff"/><use xlink:href="#n" transform="matrix(1,0,0,1,990.9991140198799,511.9999999999999) translate(0 17.77777777777778)"/><use xlink:href="#o" transform="matrix(1,0,0,1,990.9991140198799,511.9999999999999) translate(62.901234567901234 17.77777777777778)"/><path d="M999 546a6 6 0 0 1 6-6h168a6 6 0 0 1 6 6v68a6 6 0 0 1-6 6h-168a6 6 0 0 1-6-6z" fill="#fff"/><path d="M1023.67 540h18.66m9.34 0h18.66m9.34 0h18.66m9.34 0h18.66m9.34 0h18.66m9.34 0h9.33l.94.07.9.22.88.35.8.5.72.6.6.72.5.8.37.88.22.9.08.95v11.33m0 11.34v22.66m0 11.34V614l-.08.94-.22.9-.36.88-.5.8-.6.72-.7.6-.82.5-.87.37-.9.23-.95.07h-9.33m-9.34 0h-18.66m-9.34 0h-18.66m-9.34 0h-18.66m-9.34 0h-18.66m-9.34 0h-18.66m-9.34 0H1005l-.94-.07-.9-.22-.88-.35-.8-.5-.72-.6-.62-.72-.5-.8-.35-.88-.23-.9-.07-.95v-11.33m0-11.34v-22.66m0-11.34V546l.07-.94.22-.9.35-.88.5-.8.6-.72.72-.6.8-.5.88-.37.9-.23.95-.07h9.33" stroke="#3a414a" stroke-width="2" fill="none"/><use xlink:href="#d" transform="matrix(1,0,0,1,1010.9991140198799,551.9999999999999) translate(38.15432098765432 31.77777777777778)"/><path d="M999 646a6 6 0 0 1 6-6h168a6 6 0 0 1 6 6v68a6 6 0 0 1-6 6h-168a6 6 0 0 1-6-6z" fill="#fff"/><path d="M1023.67 640h18.66m9.34 0h18.66m9.34 0h18.66m9.34 0h18.66m9.34 0h18.66m9.34 0h9.33l.94.07.9.22.88.35.8.5.72.6.6.72.5.8.37.88.22.9.08.95v11.33m0 11.34v22.66m0 11.34V714l-.08.94-.22.9-.36.88-.5.8-.6.72-.7.6-.82.5-.87.37-.9.23-.95.07h-9.33m-9.34 0h-18.66m-9.34 0h-18.66m-9.34 0h-18.66m-9.34 0h-18.66m-9.34 0h-18.66m-9.34 0H1005l-.94-.07-.9-.22-.88-.35-.8-.5-.72-.6-.62-.72-.5-.8-.35-.88-.23-.9-.07-.95v-11.33m0-11.34v-22.66m0-11.34V646l.07-.94.22-.9.35-.88.5-.8.6-.72.72-.6.8-.5.88-.37.9-.23.95-.07h9.33" stroke="#3a414a" stroke-width="2" fill="none"/><use xlink:href="#e" transform="matrix(1,0,0,1,1010.9991140198799,651.9999999999999) translate(43.4320987654321 31.77777777777778)"/><path d="M999 741a6 6 0 0 1 6-6h168a6 6 0 0 1 6 6v68a6 6 0 0 1-6 6h-168a6 6 0 0 1-6-6z" fill="#fff"/><path d="M1023.67 735h18.66m9.34 0h18.66m9.34 0h18.66m9.34 0h18.66m9.34 0h18.66m9.34 0h9.33l.94.07.9.22.88.35.8.5.72.6.6.72.5.8.37.88.22.9.08.95v11.33m0 11.34v22.66m0 11.34V809l-.08.94-.22.9-.36.88-.5.8-.6.72-.7.6-.82.5-.87.37-.9.23-.95.07h-9.33m-9.34 0h-18.66m-9.34 0h-18.66m-9.34 0h-18.66m-9.34 0h-18.66m-9.34 0h-18.66m-9.34 0H1005l-.94-.07-.9-.22-.88-.35-.8-.5-.72-.6-.62-.72-.5-.8-.35-.88-.23-.9-.07-.95v-11.33m0-11.34v-22.66m0-11.34V741l.07-.94.22-.9.35-.88.5-.8.6-.72.72-.6.8-.5.88-.37.9-.23.95-.07h9.33" stroke="#3a414a" stroke-width="2" fill="none"/><use xlink:href="#f" transform="matrix(1,0,0,1,1010.9991140198799,746.9999999999999) translate(51.51851851851852 31.77777777777778)"/><path d="M999 926a6 6 0 0 1 6-6h168a6 6 0 0 1 6 6v68a6 6 0 0 1-6 6h-168a6 6 0 0 1-6-6z" fill="#fff"/><path d="M1023.67 920h18.66m9.34 0h18.66m9.34 0h18.66m9.34 0h18.66m9.34 0h18.66m9.34 0h9.33l.94.07.9.22.88.35.8.5.72.6.6.72.5.8.37.88.22.9.08.95v11.33m0 11.34v22.66m0 11.34V994l-.08.94-.22.9-.36.88-.5.8-.6.72-.7.6-.82.5-.87.37-.9.23-.95.07h-9.33m-9.34 0h-18.66m-9.34 0h-18.66m-9.34 0h-18.66m-9.34 0h-18.66m-9.34 0h-18.66m-9.34 0H1005l-.94-.07-.9-.22-.88-.35-.8-.5-.72-.6-.62-.72-.5-.8-.35-.88-.23-.9-.07-.95v-11.33m0-11.34v-22.66m0-11.34V926l.07-.94.22-.9.35-.88.5-.8.6-.72.72-.6.8-.5.88-.37.9-.23.95-.07h9.33" stroke="#3a414a" stroke-width="2" fill="none"/><use xlink:href="#g" transform="matrix(1,0,0,1,1010.9991140198799,932) translate(42.2283950617284 21.27777777777778)"/><use xlink:href="#h" transform="matrix(1,0,0,1,1010.9991140198799,932) translate(24.944444444444436 47.94444444444444)"/><path d="M901.5 790h.2l.68-.06.68-.07.68-.1.67-.13.68-.15.67-.2.67-.22.68-.25.7-.3.7-.33.72-.37.74-.43.75-.48.8-.55.82-.62.85-.7.9-.8.93-.93 1-1.06 1.07-1.24 1.14-1.44 1.25-1.7 1.35-2.05 1.5-2.46 1.65-3.02 1.88-3.8 2.16-4.86 2.55-6.5 3.16-9.12 4.27-14.2 8.37-33.24 14.7-60.5 4.25-14.23 3.15-9.1 2.56-6.5 2.17-4.86 1.88-3.8 1.66-3 1.5-2.47 1.35-2.04 1.24-1.7 1.13-1.45 1.07-1.24.7-.75" stroke="#3a414a" stroke-linejoin="round" fill="none"/><path d="M901.52 790.46H901v-.94h.5z" stroke="#3a414a" stroke-width=".05" fill="#3a414a"/><path d="M996.55 580.7l-10.78 10.44-4.08-8.32z" stroke="#3a414a" fill="#3a414a"/><path d="M901.5 790l9.95-.26 8.1-.62 6.77-.87 6.17-1.13 6.46-1.53 27.55-7.73 6.18-1.12 6.78-.87 2.18-.17" stroke="#3a414a" stroke-linejoin="round" fill="none"/><path d="M901.53 790.46H901v-.94h.5z" stroke="#3a414a" stroke-width=".05" fill="#3a414a"/><path d="M996.38 775.07l-14.05 5.25-.4-9.26z" stroke="#3a414a" fill="#3a414a"/><path d="M901.5 790l.36.02.84.05.83.1.82.1.8.16.82.2.8.22.82.26.8.3.82.36.83.4.85.44.87.5.9.56.9.64.95.72 1 .82 1.02.92 1.1 1.07 1.13 1.22 1.22 1.4 1.3 1.66 1.4 1.96 1.55 2.32 1.7 2.8 1.9 3.48 2.17 4.38 2.56 5.75 3.14 7.97 4.32 12.47 23.24 76 3.14 7.97 2.56 5.76 2.17 4.38 1.9 3.47 1.7 2.82 1.54 2.32 1.4 1.95 1.3 1.64 1.23 1.4 1.14 1.23 1.1 1.07.73.66" stroke="#3a414a" stroke-linejoin="round" fill="none"/><path d="M901.52 789.54l-.02.95-.5-.02v-.96z" stroke="#3a414a" stroke-width=".05" fill="#3a414a"/><path d="M996.5 959.38l-14.95-1.15 3.53-8.57z" stroke="#3a414a" fill="#3a414a"/><path d="M999 836a6 6 0 0 1 6-6h168a6 6 0 0 1 6 6v68a6 6 0 0 1-6 6h-168a6 6 0 0 1-6-6z" fill="#fff"/><path d="M1023.67 830h18.66m9.34 0h18.66m9.34 0h18.66m9.34 0h18.66m9.34 0h18.66m9.34 0h9.33l.94.07.9.22.88.35.8.5.72.6.6.72.5.8.37.88.22.9.08.95v11.33m0 11.34v22.66m0 11.34V904l-.08.94-.22.9-.36.88-.5.8-.6.72-.7.6-.82.5-.87.37-.9.23-.95.07h-9.33m-9.34 0h-18.66m-9.34 0h-18.66m-9.34 0h-18.66m-9.34 0h-18.66m-9.34 0h-18.66m-9.34 0H1005l-.94-.07-.9-.22-.88-.35-.8-.5-.72-.6-.62-.72-.5-.8-.35-.88-.23-.9-.07-.95v-11.33m0-11.34v-22.66m0-11.34V836l.07-.94.22-.9.35-.88.5-.8.6-.72.72-.6.8-.5.88-.37.9-.23.95-.07h9.33" stroke="#3a414a" stroke-width="2" fill="none"/><use xlink:href="#l" transform="matrix(1,0,0,1,1010.9991140198799,841.9999999999999) translate(25.006172839506178 31.77777777777778)"/><use xlink:href="#m" transform="matrix(1,0,0,1,1010.9991140198799,841.9999999999999) translate(90.37654320987654 31.77777777777778)"/><path d="M901.5 790l1.7.06 2.1.16 2 .26 1.9.35 1.87.43 1.8.53 1.78.6 1.76.73 1.77.82 1.76.94 1.8 1.06 1.8 1.24 1.9 1.4 1.97 1.66 2.1 1.95 2.27 2.35 2.54 2.9 2.98 3.75 3.86 5.47 20.58 32.13 2.97 3.76 2.53 2.9 2.27 2.33 2.1 1.94 1.97 1.65 1.9 1.4 1.8 1.24 1.8 1.07 1.76.95 1.26.6" stroke="#3a414a" stroke-linejoin="round" fill="none"/><path d="M901.53 789.54l-.03.95-.5-.02v-.96z" stroke="#3a414a" stroke-width=".05" fill="#3a414a"/><path d="M996.42 869.67l-14.92 1.58 1.9-9.07z" stroke="#3a414a" fill="#3a414a"/><path d="M-220 1126a6 6 0 0 1 6-6h148a6 6 0 0 1 6 6v108a6 6 0 0 1-6 6h-148a6 6 0 0 1-6-6z" stroke="#3a414a" stroke-width="2" fill="#fff"/><use xlink:href="#p" transform="matrix(1,0,0,1,-208,1132) translate(40.25308641975309 53.77777777777778)"/><path d="M220 1126a6 6 0 0 1 6-6h148a6 6 0 0 1 6 6v108a6 6 0 0 1-6 6H226a6 6 0 0 1-6-6z" stroke="#3a414a" stroke-width="2" fill="#fff"/><use xlink:href="#q" transform="matrix(1,0,0,1,232,1132) translate(38.40123456790124 38.77777777777778)"/><use xlink:href="#r" transform="matrix(1,0,0,1,232,1132) translate(26.148148148148145 65.44444444444446)"/><path d="M-58.5 1180h261.12" stroke="#3a414a" stroke-linejoin="round" fill="none"/><path d="M-58.48 1180.47H-59v-.94h.52z" stroke="#3a414a" stroke-width=".05" fill="#3a414a"/><path d="M217.38 1180l-14.26 4.63v-9.27z" stroke="#3a414a" fill="#3a414a"/><path d="M381.5 1180l18.04-.38 17.2-1.08 16.07-1.7 15.17-2.22 14.4-2.75 13.75-3.22 13.26-3.7 12.87-4.2 12.6-4.67 12.43-5.23 12.37-5.82 12.45-6.5 12.68-7.34 13.13-8.34 13.87-9.64 15.1-11.47 17.3-14.35 22.3-20.12L754.8 962.6l17.3-14.35 15.1-11.47 13.87-9.64 13.1-8.33 12.7-7.32 12.45-6.5 12.37-5.83 12.43-5.23 12.6-4.68 12.87-4.2 13.26-3.7 13.76-3.2 14.4-2.76 15.14-2.23 16.08-1.7 17.2-1.07 2.16-.04" stroke="#3a414a" stroke-linejoin="round" fill="none"/><path d="M381.53 1180.46H381v-.93l.5-.02z" stroke="#3a414a" stroke-width=".05" fill="#3a414a"/><path d="M996.38 870.03l-14.16 4.93-.2-9.27z" stroke="#3a414a" fill="#3a414a"/><path d="M430.5 1016a6 6 0 0 1 6-6h228a6 6 0 0 1 6 6v48a6 6 0 0 1-6 6h-228a6 6 0 0 1-6-6z" fill="none"/><use xlink:href="#s" transform="matrix(1,0,0,1,430.50044299006004,1010) translate(110.74074074074073 34.44444444444444)"/><path d="M969 1016a6 6 0 0 1 6-6h228a6 6 0 0 1 6 6v48a6 6 0 0 1-6 6H975a6 6 0 0 1-6-6z" fill="none"/><use xlink:href="#s" transform="matrix(1,0,0,1,968.9991140198799,1010) translate(110.74074074074073 34.44444444444444)"/><path d="M1420 506a6 6 0 0 1 6-6h308a6 6 0 0 1 6 6v788a6 6 0 0 1-6 6h-308a6 6 0 0 1-6-6z" stroke="#3a414a" stroke-width="2" fill="#fff"/><use xlink:href="#t" transform="matrix(1,0,0,1,1432,512) translate(0 17.77777777777778)"/><use xlink:href="#u" transform="matrix(1,0,0,1,1432,512) translate(68.51851851851852 17.77777777777778)"/><path d="M1440 546a6 6 0 0 1 6-6h268a6 6 0 0 1 6 6v68a6 6 0 0 1-6 6h-268a6 6 0 0 1-6-6z" stroke="#3a414a" stroke-width="2" fill="#fff"/><use xlink:href="#v" transform="matrix(1,0,0,1,1452,552) translate(87.96913580246914 31.77777777777778)"/><path d="M1440 646a6 6 0 0 1 6-6h268a6 6 0 0 1 6 6v68a6 6 0 0 1-6 6h-268a6 6 0 0 1-6-6z" stroke="#3a414a" stroke-width="2" fill="#fff"/><use xlink:href="#w" transform="matrix(1,0,0,1,1452,651.9999999999999) translate(85.5 31.77777777777778)"/><path d="M1440 746a6 6 0 0 1 6-6h268a6 6 0 0 1 6 6v68a6 6 0 0 1-6 6h-268a6 6 0 0 1-6-6z" fill="#fff"/><path d="M1465.85 740h19.85m9.93 0h19.85m9.93 0h19.86m9.92 0h19.86m9.92 0h19.86m9.92 0h19.85m9.92 0h19.85m9.93 0h19.85m9.92 0h9.93l.94.07.9.22.88.35.8.5.72.6.6.72.5.8.37.88.23.9.07.95v11.33m0 11.34v22.66m0 11.34V814l-.07.94-.22.9-.35.88-.5.8-.6.72-.72.6-.8.5-.88.37-.9.23-.95.07h-9.93m-9.92 0h-19.85m-9.93 0h-19.85m-9.93 0h-19.86m-9.92 0h-19.86m-9.92 0h-19.86m-9.92 0h-19.85m-9.92 0h-19.85m-9.93 0h-19.85m-9.92 0H1446l-.94-.07-.9-.22-.88-.35-.8-.5-.72-.6-.6-.72-.5-.8-.37-.88-.23-.9-.07-.95v-11.33m0-11.34v-22.66m0-11.34V746l.07-.94.22-.9.35-.88.5-.8.6-.72.72-.6.8-.5.88-.37.9-.23.95-.07h9.93" stroke="#3a414a" stroke-width="2" fill="none"/><use xlink:href="#x" transform="matrix(1,0,0,1,1452,752) translate(63.30864197530863 31.77777777777778)"/><path d="M1440 846a6 6 0 0 1 6-6h268a6 6 0 0 1 6 6v68a6 6 0 0 1-6 6h-268a6 6 0 0 1-6-6z" fill="#fff"/><path d="M1465.85 840h19.85m9.93 0h19.85m9.93 0h19.86m9.92 0h19.86m9.92 0h19.86m9.92 0h19.85m9.92 0h19.85m9.93 0h19.85m9.92 0h9.93l.94.07.9.22.88.35.8.5.72.6.6.72.5.8.37.88.23.9.07.95v11.33m0 11.34v22.66m0 11.34V914l-.07.94-.22.9-.35.88-.5.8-.6.72-.72.6-.8.5-.88.37-.9.23-.95.07h-9.93m-9.92 0h-19.85m-9.93 0h-19.85m-9.93 0h-19.86m-9.92 0h-19.86m-9.92 0h-19.86m-9.92 0h-19.85m-9.92 0h-19.85m-9.93 0h-19.85m-9.92 0H1446l-.94-.07-.9-.22-.88-.35-.8-.5-.72-.6-.6-.72-.5-.8-.37-.88-.23-.9-.07-.95v-11.33m0-11.34v-22.66m0-11.34V846l.07-.94.22-.9.35-.88.5-.8.6-.72.72-.6.8-.5.88-.37.9-.23.95-.07h9.93" stroke="#3a414a" stroke-width="2" fill="none"/><use xlink:href="#y" transform="matrix(1,0,0,1,1452,852.0000000000001) translate(68.80246913580245 31.77777777777778)"/><path d="M1440 946a6 6 0 0 1 6-6h268a6 6 0 0 1 6 6v68a6 6 0 0 1-6 6h-268a6 6 0 0 1-6-6z" fill="#fff"/><path d="M1465.85 940h19.85m9.93 0h19.85m9.93 0h19.86m9.92 0h19.86m9.92 0h19.86m9.92 0h19.85m9.92 0h19.85m9.93 0h19.85m9.92 0h9.93l.94.07.9.22.88.35.8.5.72.6.6.72.5.8.37.88.23.9.07.95v11.33m0 11.34v22.66m0 11.34V1014l-.07.94-.22.9-.35.88-.5.8-.6.72-.72.6-.8.5-.88.37-.9.23-.95.07h-9.93m-9.92 0h-19.85m-9.93 0h-19.85m-9.93 0h-19.86m-9.92 0h-19.86m-9.92 0h-19.86m-9.92 0h-19.85m-9.92 0h-19.85m-9.93 0h-19.85m-9.92 0H1446l-.94-.07-.9-.22-.88-.35-.8-.5-.72-.6-.6-.72-.5-.8-.37-.88-.23-.9-.07-.95v-11.33m0-11.34v-22.66m0-11.34V946l.07-.94.22-.9.35-.88.5-.8.6-.72.72-.6.8-.5.88-.37.9-.23.95-.07h9.93" stroke="#3a414a" stroke-width="2" fill="none"/><use xlink:href="#z" transform="matrix(1,0,0,1,1452,952.0000000000002) translate(44.79012345679013 31.77777777777778)"/><path d="M1440 1046a6 6 0 0 1 6-6h268a6 6 0 0 1 6 6v68a6 6 0 0 1-6 6h-268a6 6 0 0 1-6-6z" fill="#fff"/><path d="M1465.85 1040h19.85m9.93 0h19.85m9.93 0h19.86m9.92 0h19.86m9.92 0h19.86m9.92 0h19.85m9.92 0h19.85m9.93 0h19.85m9.92 0h9.93l.94.07.9.22.88.35.8.5.72.6.6.72.5.8.37.88.23.9.07.95v11.33m0 11.34v22.66m0 11.34V1114l-.07.94-.22.9-.35.88-.5.8-.6.72-.72.6-.8.5-.88.37-.9.23-.95.07h-9.93m-9.92 0h-19.85m-9.93 0h-19.85m-9.93 0h-19.86m-9.92 0h-19.86m-9.92 0h-19.86m-9.92 0h-19.85m-9.92 0h-19.85m-9.93 0h-19.85m-9.92 0H1446l-.94-.07-.9-.22-.88-.35-.8-.5-.72-.6-.6-.72-.5-.8-.37-.88-.23-.9-.07-.95v-11.33m0-11.34v-22.66m0-11.34V1046l.07-.94.22-.9.35-.88.5-.8.6-.72.72-.6.8-.5.88-.37.9-.23.95-.07h9.93" stroke="#3a414a" stroke-width="2" fill="none"/><use xlink:href="#A" transform="matrix(1,0,0,1,1452,1052) translate(27.043209876543244 31.77777777777778)"/><path d="M1440 1146a6 6 0 0 1 6-6h268a6 6 0 0 1 6 6v88a6 6 0 0 1-6 6h-268a6 6 0 0 1-6-6z" fill="#fff"/><path d="M1465.85 1140h19.85m9.93 0h19.85m9.93 0h19.86m9.92 0h19.86m9.92 0h19.86m9.92 0h19.85m9.92 0h19.85m9.93 0h19.85m9.92 0h9.93l.94.07.9.22.88.35.8.5.72.6.6.72.5.8.37.88.23.9.07.95v9.78m0 9.78v19.55m0 9.8v19.54m0 9.78v9.78l-.07.94-.22.9-.35.88-.5.8-.6.72-.72.6-.8.5-.88.37-.9.23-.95.07h-9.93m-9.92 0h-19.85m-9.93 0h-19.85m-9.93 0h-19.86m-9.92 0h-19.86m-9.92 0h-19.86m-9.92 0h-19.85m-9.92 0h-19.85m-9.93 0h-19.85m-9.92 0H1446l-.94-.07-.9-.22-.88-.35-.8-.5-.72-.6-.6-.72-.5-.8-.37-.88-.23-.9-.07-.95v-9.78m0-9.78v-19.55m0-9.8v-19.54m0-9.78V1146l.07-.94.22-.9.35-.88.5-.8.6-.72.72-.6.8-.5.88-.37.9-.23.95-.07h9.93" stroke="#3a414a" stroke-width="2" fill="none"/><use xlink:href="#B" transform="matrix(1,0,0,1,1452,1152) translate(12.691358024691368 41.52777777777778)"/><use xlink:href="#C" transform="matrix(1,0,0,1,1452,1152) translate(95.28395061728395 41.52777777777778)"/><use xlink:href="#D" transform="matrix(1,0,0,1,1452,1152) translate(134.7283950617284 41.52777777777778)"/><path d="M1180.5 580l4.5.1 4.78.3 4.57.48 4.4.65 4.28.82 4.15.97 4.07 1.14 4 1.3 3.93 1.46 3.92 1.65 3.9 1.84 3.92 2.05 3.95 2.28 4 2.55 4.1 2.84 4.2 3.2 4.4 3.63 4.6 4.14 4.88 4.78 5.3 5.65 5.9 6.83 6.83 8.65 8.7 12 16.33 24.84 27.13 41.9 8.7 11.98 6.83 8.65 5.9 6.83 5.3 5.65 4.88 4.8 4.6 4.13 4.38 3.63 4.2 3.2 4.1 2.86 4 2.54 3.96 2.28 3.92 2.05 3.9 1.84 3.9 1.64 3.96 1.48 4 1.3 4.05 1.13 4.17.98 4.27.82 2.43.36" stroke="#3a414a" stroke-linejoin="round" fill="none"/><path d="M1180.53 579.54l-.02.95-.5-.02v-.96z" stroke="#3a414a" stroke-width=".05" fill="#3a414a"/><path d="M1437.4 785.22l-14.58 3.6.67-9.25z" stroke="#3a414a" fill="#3a414a"/><path d="M1180.5 680l4.64.1 4.88.3 4.7.5 4.5.67 4.35.83 4.24 1 4.15 1.15 4.07 1.33 4.02 1.5 3.98 1.66 3.97 1.87 3.97 2.1 4 2.3 4.1 2.6 4.15 2.9 4.3 3.25 4.45 3.7 4.7 4.2 5 4.92 5.44 5.8 6.12 7.1 7.2 9.1 9.6 13.26 46.55 69 7.2 9.1 6.12 7.1 5.44 5.8 5 4.9 4.7 4.23 4.45 3.7 4.28 3.25 4.16 2.9 4.08 2.6 4 2.3 4 2.1 3.96 1.86 3.98 1.67 4.02 1.5 4.06 1.32 4.15 1.15 4.23 1 4.36.83 2.87.43" stroke="#3a414a" stroke-linejoin="round" fill="none"/><path d="M1180.53 679.54l-.02.95-.5-.02v-.96z" stroke="#3a414a" stroke-width=".05" fill="#3a414a"/><path d="M1437.4 879.9l-14.57 3.6.65-9.24z" stroke="#3a414a" fill="#3a414a"/><path d="M1180.5 775l4.5.1 4.8.3 4.57.5 4.42.64 4.26.8 4.16 1 4.07 1.12 4 1.3 3.94 1.47 3.9 1.65 3.92 1.84 3.92 2.05 3.96 2.28 4 2.55 4.1 2.85 4.23 3.2 4.38 3.63 4.6 4.15 4.9 4.8 5.3 5.65 5.9 6.85 6.87 8.67 8.73 12.06 16.93 25.73 26.17 40.34 8.73 12.06 6.86 8.67 5.9 6.85 5.3 5.65 4.9 4.8 4.6 4.15 4.4 3.63 4.2 3.2 4.1 2.85 4.02 2.55 3.96 2.28 3.92 2.05 3.9 1.84 3.92 1.65 3.95 1.47 4 1.3 4.08 1.13 4.16.98 4.27.8 2.47.38" stroke="#3a414a" stroke-linejoin="round" fill="none"/><path d="M1180.53 774.54l-.02.95-.5-.02v-.96z" stroke="#3a414a" stroke-width=".05" fill="#3a414a"/><path d="M1437.4 979.88l-14.58 3.6.67-9.24z" stroke="#3a414a" fill="#3a414a"/><path d="M1180.5 870l4.4.1 4.67.3 4.5.47 4.3.63 4.2.8 4.1.96 4 1.12 3.92 1.28 3.87 1.44 3.86 1.62 3.84 1.8 3.87 2.03 3.9 2.25 3.94 2.5 4.04 2.82 4.15 3.15 4.3 3.57 4.53 4.07 4.8 4.72 5.18 5.52 5.73 6.64 6.58 8.3 8.12 11.2 12.53 18.97 35.87 56.47 8.12 11.2 6.57 8.3 5.72 6.64 5.18 5.52 4.8 4.7 4.52 4.08 4.3 3.57 4.16 3.15 4.04 2.8 3.95 2.52 3.9 2.25 3.86 2.02 3.84 1.8 3.86 1.63 3.88 1.44 3.94 1.28 4 1.12 4.1.95 4.18.8 2.06.3" stroke="#3a414a" stroke-linejoin="round" fill="none"/><path d="M1180.53 869.54l-.02.95-.5-.02v-.96z" stroke="#3a414a" stroke-width=".05" fill="#3a414a"/><path d="M1437.4 1079.88l-14.58 3.58.68-9.25z" stroke="#3a414a" fill="#3a414a"/><path d="M1180.5 960l3.98.1 4.3.26 4.13.44 4.02.6 3.9.73 3.8.9 3.73 1.04 3.7 1.2 3.63 1.35 3.63 1.53 3.64 1.7 3.64 1.9 3.68 2.13 3.74 2.38 3.8 2.65 3.93 3 4.07 3.35 4.24 3.82 4.47 4.38 4.8 5.1 5.18 6.02 5.78 7.3 6.7 9.22 8.33 12.58 13.3 22.1 35.1 60.54 8.35 12.6 6.7 9.2 5.77 7.3 5.2 6.03 4.77 5.1 4.46 4.38 4.24 3.82 4.06 3.36 3.93 3 3.8 2.64 3.74 2.38 3.68 2.12 3.64 1.9 3.63 1.7 3.62 1.54 3.64 1.36 3.7 1.2 3.72 1.04 3.8.9 3.9.73.6.1" stroke="#3a414a" stroke-linejoin="round" fill="none"/><path d="M1180.53 959.54l-.02.95-.5-.02v-.96z" stroke="#3a414a" stroke-width=".05" fill="#3a414a"/><path d="M1437.4 1189.87l-14.6 3.5.73-9.25z" stroke="#3a414a" fill="#3a414a"/><path d="M1919 536a6 6 0 0 1 6-6h448a6 6 0 0 1 6 6v728a6 6 0 0 1-6 6h-448a6 6 0 0 1-6-6z" stroke="#3a414a" stroke-width="2" fill="#fff"/><use xlink:href="#E" transform="matrix(1,0,0,1,1930.9961800371998,542) translate(0 17.77777777777778)"/><use xlink:href="#F" transform="matrix(1,0,0,1,1930.9961800371998,542) translate(57.962962962962955 17.77777777777778)"/><path d="M1959 596a6 6 0 0 1 6-6h368a6 6 0 0 1 6 6v108a6 6 0 0 1-6 6h-368a6 6 0 0 1-6-6z" stroke="#3a414a" stroke-width="2" fill="#fff"/><use xlink:href="#G" transform="matrix(1,0,0,1,1970.9961800371998,602) translate(111.48765432098766 53.77777777777778)"/><use xlink:href="#H" transform="matrix(1,0,0,1,1970.9961800371998,602) translate(194.14197530864197 53.77777777777778)"/><path d="M1959 766a6 6 0 0 1 6-6h368a6 6 0 0 1 6 6v108a6 6 0 0 1-6 6h-368a6 6 0 0 1-6-6z" fill="#fff"/><path d="M1985.44 760h20.44m10.23 0h20.45m10.22 0h20.45m10.22 0h20.45m10.2 0h20.45m10.22 0h20.45m10.22 0h20.45m10.2 0h20.45m10.22 0h20.45m10.22 0h20.45m10.2 0h20.45m10.22 0H2333l.93.07.92.22.87.35.8.5.72.6.6.72.5.8.36.88.22.9.08.95v9m0 9v18m0 9v18m0 9v18m0 9v9l-.08.94-.22.9-.36.88-.5.8-.6.72-.72.6-.8.5-.87.37-.9.23-.95.07h-10.23m-10.22 0h-20.44m-10.2 0h-20.46m-10.22 0h-20.45m-10.22 0h-20.44m-10.2 0h-20.46m-10.22 0h-20.45m-10.22 0h-20.44m-10.2 0h-20.46m-10.22 0h-20.45m-10.22 0h-20.44m-10.2 0h-20.46m-10.22 0H1965l-.94-.07-.92-.22-.87-.35-.8-.5-.72-.6-.6-.72-.5-.8-.36-.88-.23-.9-.07-.95v-9m0-9v-18m0-9v-18m0-9v-18m0-9v-9l.07-.94.22-.9.35-.88.5-.8.6-.72.72-.6.8-.5.87-.37.92-.23.94-.07h10.22" stroke="#3a414a" stroke-width="2" fill="none"/><g><use xlink:href="#I" transform="matrix(1,0,0,1,1970.9961800371998,772) translate(153.95679012345678 53.77777777777778)"/></g><path d="M1959 956a6 6 0 0 1 6-6h368a6 6 0 0 1 6 6v108a6 6 0 0 1-6 6h-368a6 6 0 0 1-6-6z" fill="#fff"/><path d="M1985.44 950h20.44m10.23 0h20.45m10.22 0h20.45m10.22 0h20.45m10.2 0h20.45m10.22 0h20.45m10.22 0h20.45m10.2 0h20.45m10.22 0h20.45m10.22 0h20.45m10.2 0h20.45m10.22 0H2333l.93.07.92.22.87.35.8.5.72.6.6.72.5.8.36.88.22.9.08.95v9m0 9v18m0 9v18m0 9v18m0 9v9l-.08.94-.22.9-.36.88-.5.8-.6.72-.72.6-.8.5-.87.37-.9.23-.95.07h-10.23m-10.22 0h-20.44m-10.2 0h-20.46m-10.22 0h-20.45m-10.22 0h-20.44m-10.2 0h-20.46m-10.22 0h-20.45m-10.22 0h-20.44m-10.2 0h-20.46m-10.22 0h-20.45m-10.22 0h-20.44m-10.2 0h-20.46m-10.22 0H1965l-.94-.07-.92-.22-.87-.35-.8-.5-.72-.6-.6-.72-.5-.8-.36-.88-.23-.9-.07-.95v-9m0-9v-18m0-9v-18m0-9v-18m0-9v-9l.07-.94.22-.9.35-.88.5-.8.6-.72.72-.6.8-.5.87-.37.92-.23.94-.07h10.22" stroke="#3a414a" stroke-width="2" fill="none"/><g><use xlink:href="#J" transform="matrix(1,0,0,1,1970.9961800371998,962.0000000000002) translate(73.80246913580247 53.77777777777778)"/><use xlink:href="#K" transform="matrix(1,0,0,1,1970.9961800371998,962.0000000000002) translate(144.04938271604937 53.77777777777778)"/><use xlink:href="#L" transform="matrix(1,0,0,1,1970.9961800371998,962.0000000000002) translate(200.77777777777777 53.77777777777778)"/></g><path d="M1741.5 900h160.1" stroke="#3a414a" stroke-linejoin="round" fill="none"/><path d="M1741.52 900.48h-.52v-.96h.52z" stroke="#3a414a" stroke-width=".05" fill="#3a414a"/><path d="M1916.38 900l-14.27 4.63v-9.26z" stroke="#3a414a" fill="#3a414a"/><path d="M759.75 566a6 6 0 0 1 6-6h108.5a6 6 0 0 1 6 6v92a6 6 0 0 1-6 6h-108.5a6 6 0 0 1-6-6z" fill="#fff"/><path d="M783.83 560h18.1m9.03 0h18.08m9.04 0h18.1m9.03 0h9.05l.94.07.9.22.87.35.8.5.72.6.6.72.5.8.36.88.22.9.07.95v10.22m0 10.22v20.45m0 10.2v20.46m0 10.22V658l-.07.94-.22.9-.36.88-.5.8-.6.72-.72.6-.8.5-.88.37-.9.23-.95.07h-9.04m-9.03 0h-18.1m-9.03 0h-18.08m-9.04 0h-18.1m-9.03 0h-9.05l-.94-.07-.9-.22-.87-.35-.8-.5-.72-.6-.6-.72-.5-.8-.36-.88-.22-.9-.07-.95v-10.22m0-10.22V617.1m0-10.2v-20.46m0-10.22V566l.07-.94.22-.9.36-.88.5-.8.6-.72.72-.6.8-.5.88-.37.9-.23.95-.07h9.04" stroke="#3a414a" stroke-width="2" fill="none"/><g><use xlink:href="#g" transform="matrix(1,0,0,1,771.74977850497,572) translate(12.7283950617284 17.77777777777778)"/><use xlink:href="#M" transform="matrix(1,0,0,1,771.74977850497,572) translate(2.944444444444443 44.44444444444444)"/><use xlink:href="#h" transform="matrix(1,0,0,1,771.74977850497,572) translate(-4.555555555555564 71.11111111111111)"/></g><defs><path d="M114-163C36-179 61-72 57 0H25l-1-190h30c1 12-1 29 2 39 6-27 23-49 58-41v29" id="N"/><path d="M84 4C-5 8 30-112 23-190h32v120c0 31 7 50 39 49 72-2 45-101 50-169h31l1 190h-30c-1-10 1-25-2-33-11 22-28 36-60 37" id="O"/><path d="M135-143c-3-34-86-38-87 0 15 53 115 12 119 90S17 21 10-45l28-5c4 36 97 45 98 0-10-56-113-15-118-90-4-57 82-63 122-42 12 7 21 19 24 35" id="P"/><path d="M59-47c-2 24 18 29 38 22v24C64 9 27 4 27-40v-127H5v-23h24l9-43h21v43h35v23H59v120" id="Q"/><g id="a"><use transform="matrix(0.06172839506172839,0,0,0.06172839506172839,0,0)" xlink:href="#N"/><use transform="matrix(0.06172839506172839,0,0,0.06172839506172839,7.345679012345679,0)" xlink:href="#O"/><use transform="matrix(0.06172839506172839,0,0,0.06172839506172839,19.691358024691358,0)" xlink:href="#P"/><use transform="matrix(0.06172839506172839,0,0,0.06172839506172839,30.80246913580247,0)" xlink:href="#Q"/></g><path d="M233-177c-1 41-23 64-60 70L243 0h-38l-65-103H63V0H30v-248c88 3 205-21 203 71zM63-129c60-2 137 13 137-47 0-61-80-42-137-45v92" id="R"/><path d="M33 0v-248h34V0H33" id="S"/><path d="M185-189c-5-48-123-54-124 2 14 75 158 14 163 119 3 78-121 87-175 55-17-10-28-26-33-46l33-7c5 56 141 63 141-1 0-78-155-14-162-118-5-82 145-84 179-34 5 7 8 16 11 25" id="T"/><path d="M212-179c-10-28-35-45-73-45-59 0-87 40-87 99 0 60 29 101 89 101 43 0 62-24 78-52l27 14C228-24 195 4 139 4 59 4 22-46 18-125c-6-104 99-153 187-111 19 9 31 26 39 46" id="U"/><path d="M16-82v-28h88v28H16" id="V"/><path d="M137 0h-34L2-248h35l83 218 83-218h36" id="W"/><g id="b"><use transform="matrix(0.06172839506172839,0,0,0.06172839506172839,0,0)" xlink:href="#R"/><use transform="matrix(0.06172839506172839,0,0,0.06172839506172839,15.987654320987653,0)" xlink:href="#S"/><use transform="matrix(0.06172839506172839,0,0,0.06172839506172839,22.160493827160494,0)" xlink:href="#T"/><use transform="matrix(0.06172839506172839,0,0,0.06172839506172839,36.9753086419753,0)" xlink:href="#U"/><use transform="matrix(0.06172839506172839,0,0,0.06172839506172839,52.962962962962955,0)" xlink:href="#V"/><use transform="matrix(0.06172839506172839,0,0,0.06172839506172839,60.30864197530863,0)" xlink:href="#W"/></g><path d="M30 0v-248h187v28H63v79h144v27H63v87h162V0H30" id="X"/><path d="M30 0v-248h33v221h125V0H30" id="Y"/><path d="M63-220v92h138v28H63V0H30v-248h175v28H63" id="Z"/><g id="c"><use transform="matrix(0.06172839506172839,0,0,0.06172839506172839,0,0)" xlink:href="#X"/><use transform="matrix(0.06172839506172839,0,0,0.06172839506172839,14.814814814814813,0)" xlink:href="#Y"/><use transform="matrix(0.06172839506172839,0,0,0.06172839506172839,27.160493827160494,0)" xlink:href="#Z"/></g><path d="M126-127c33 6 58 20 58 59 0 88-139 92-164 29-3-8-5-16-6-25l32-3c6 27 21 44 54 44 32 0 52-15 52-46 0-38-36-46-79-43v-28c39 1 72-4 72-42 0-27-17-43-46-43-28 0-47 15-49 41l-32-3c6-42 35-63 81-64 48-1 79 21 79 65 0 36-21 52-52 59" id="aa"/><path d="M101-251c82-7 93 87 43 132L82-64C71-53 59-42 53-27h129V0H18c2-99 128-94 128-182 0-28-16-43-45-43s-46 15-49 41l-32-3c6-41 34-60 81-64" id="ab"/><path d="M240 0l2-218c-23 76-54 145-80 218h-23L58-218 59 0H30v-248h44l77 211c21-75 51-140 76-211h43V0h-30" id="ac"/><g id="d"><use transform="matrix(0.06172839506172839,0,0,0.06172839506172839,0,0)" xlink:href="#R"/><use transform="matrix(0.06172839506172839,0,0,0.06172839506172839,15.555555555555555,0)" xlink:href="#W"/><use transform="matrix(0.06172839506172839,0,0,0.06172839506172839,30.370370370370367,0)" xlink:href="#aa"/><use transform="matrix(0.06172839506172839,0,0,0.06172839506172839,42.716049382716044,0)" xlink:href="#ab"/><use transform="matrix(0.06172839506172839,0,0,0.06172839506172839,55.06172839506172,0)" xlink:href="#S"/><use transform="matrix(0.06172839506172839,0,0,0.06172839506172839,61.23456790123456,0)" xlink:href="#ac"/></g><path d="M143 0L79-87 56-68V0H24v-261h32v163l83-92h37l-77 82L181 0h-38" id="ad"/><path d="M100-194c63 0 86 42 84 106H49c0 40 14 67 53 68 26 1 43-12 49-29l28 8c-11 28-37 45-77 45C44 4 14-33 15-96c1-61 26-98 85-98zm52 81c6-60-76-77-97-28-3 7-6 17-6 28h103" id="ae"/><path d="M96-169c-40 0-48 33-48 73s9 75 48 75c24 0 41-14 43-38l32 2c-6 37-31 61-74 61-59 0-76-41-82-99-10-93 101-131 147-64 4 7 5 14 7 22l-32 3c-4-21-16-35-41-35" id="af"/><path d="M141-36C126-15 110 5 73 4 37 3 15-17 15-53c-1-64 63-63 125-63 3-35-9-54-41-54-24 1-41 7-42 31l-33-3c5-37 33-52 76-52 45 0 72 20 72 64v82c-1 20 7 32 28 27v20c-31 9-61-2-59-35zM48-53c0 20 12 33 32 33 41-3 63-29 60-74-43 2-92-5-92 41" id="ag"/><g id="e"><use transform="matrix(0.06172839506172839,0,0,0.06172839506172839,0,0)" xlink:href="#ad"/><use transform="matrix(0.06172839506172839,0,0,0.06172839506172839,11.11111111111111,0)" xlink:href="#ae"/><use transform="matrix(0.06172839506172839,0,0,0.06172839506172839,23.45679012345679,0)" xlink:href="#af"/><use transform="matrix(0.06172839506172839,0,0,0.06172839506172839,34.5679012345679,0)" xlink:href="#af"/><use transform="matrix(0.06172839506172839,0,0,0.06172839506172839,45.67901234567901,0)" xlink:href="#ag"/><use transform="matrix(0.06172839506172839,0,0,0.06172839506172839,58.02469135802469,0)" xlink:href="#ad"/></g><path d="M115-194c53 0 69 39 70 98 0 66-23 100-70 100C84 3 66-7 56-30L54 0H23l1-261h32v101c10-23 28-34 59-34zm-8 174c40 0 45-34 45-75 0-40-5-75-45-74-42 0-51 32-51 76 0 43 10 73 51 73" id="ah"/><path d="M24-231v-30h32v30H24zM24 0v-190h32V0H24" id="ai"/><path d="M177-190C167-65 218 103 67 71c-23-6-38-20-44-43l32-5c15 47 100 32 89-28v-30C133-14 115 1 83 1 29 1 15-40 15-95c0-56 16-97 71-98 29-1 48 16 59 35 1-10 0-23 2-32h30zM94-22c36 0 50-32 50-73 0-42-14-75-50-75-39 0-46 34-46 75s6 73 46 73" id="aj"/><path d="M117-194c89-4 53 116 60 194h-32v-121c0-31-8-49-39-48C34-167 62-67 57 0H25l-1-190h30c1 10-1 24 2 32 11-22 29-35 61-36" id="ak"/><g id="f"><use transform="matrix(0.06172839506172839,0,0,0.06172839506172839,0,0)" xlink:href="#ah"/><use transform="matrix(0.06172839506172839,0,0,0.06172839506172839,12.345679012345679,0)" xlink:href="#ai"/><use transform="matrix(0.06172839506172839,0,0,0.06172839506172839,17.22222222222222,0)" xlink:href="#aj"/><use transform="matrix(0.06172839506172839,0,0,0.06172839506172839,29.5679012345679,0)" xlink:href="#ai"/><use transform="matrix(0.06172839506172839,0,0,0.06172839506172839,34.44444444444444,0)" xlink:href="#ak"/><use transform="matrix(0.06172839506172839,0,0,0.06172839506172839,46.79012345679012,0)" xlink:href="#Q"/></g><path d="M100-194c62-1 85 37 85 99 1 63-27 99-86 99S16-35 15-95c0-66 28-99 85-99zM99-20c44 1 53-31 53-75 0-43-8-75-51-75s-53 32-53 75 10 74 51 75" id="al"/><path d="M210-169c-67 3-38 105-44 169h-31v-121c0-29-5-50-35-48C34-165 62-65 56 0H25l-1-190h30c1 10-1 24 2 32 10-44 99-50 107 0 11-21 27-35 58-36 85-2 47 119 55 194h-31v-121c0-29-5-49-35-48" id="am"/><g id="g"><use transform="matrix(0.06172839506172839,0,0,0.06172839506172839,0,0)" xlink:href="#af"/><use transform="matrix(0.06172839506172839,0,0,0.06172839506172839,11.11111111111111,0)" xlink:href="#O"/><use transform="matrix(0.06172839506172839,0,0,0.06172839506172839,23.45679012345679,0)" xlink:href="#P"/><use transform="matrix(0.06172839506172839,0,0,0.06172839506172839,34.5679012345679,0)" xlink:href="#Q"/><use transform="matrix(0.06172839506172839,0,0,0.06172839506172839,40.74074074074074,0)" xlink:href="#al"/><use transform="matrix(0.06172839506172839,0,0,0.06172839506172839,53.08641975308642,0)" xlink:href="#am"/></g><path d="M141 0L90-78 38 0H4l68-98-65-92h35l48 74 47-74h35l-64 92 68 98h-35" id="an"/><g id="h"><use transform="matrix(0.06172839506172839,0,0,0.06172839506172839,0,0)" xlink:href="#ae"/><use transform="matrix(0.06172839506172839,0,0,0.06172839506172839,12.345679012345679,0)" xlink:href="#an"/><use transform="matrix(0.06172839506172839,0,0,0.06172839506172839,23.45679012345679,0)" xlink:href="#Q"/><use transform="matrix(0.06172839506172839,0,0,0.06172839506172839,29.62962962962963,0)" xlink:href="#ae"/><use transform="matrix(0.06172839506172839,0,0,0.06172839506172839,41.97530864197531,0)" xlink:href="#ak"/><use transform="matrix(0.06172839506172839,0,0,0.06172839506172839,54.32098765432099,0)" xlink:href="#P"/><use transform="matrix(0.06172839506172839,0,0,0.06172839506172839,65.4320987654321,0)" xlink:href="#ai"/><use transform="matrix(0.06172839506172839,0,0,0.06172839506172839,70.30864197530865,0)" xlink:href="#al"/><use transform="matrix(0.06172839506172839,0,0,0.06172839506172839,82.65432098765433,0)" xlink:href="#ak"/><use transform="matrix(0.06172839506172839,0,0,0.06172839506172839,95.00000000000001,0)" xlink:href="#P"/></g><path d="M24 0v-261h32V0H24" id="ao"/><path d="M108 0H70L1-190h34L89-25l56-165h34" id="ap"/><g id="i"><use transform="matrix(0.06172839506172839,0,0,0.06172839506172839,0,0)" xlink:href="#ao"/><use transform="matrix(0.06172839506172839,0,0,0.06172839506172839,4.876543209876543,0)" xlink:href="#ao"/><use transform="matrix(0.06172839506172839,0,0,0.06172839506172839,9.753086419753085,0)" xlink:href="#ap"/><use transform="matrix(0.06172839506172839,0,0,0.06172839506172839,20.864197530864196,0)" xlink:href="#am"/></g><g id="j"><use transform="matrix(0.06172839506172839,0,0,0.06172839506172839,0,0)" xlink:href="#R"/><use transform="matrix(0.06172839506172839,0,0,0.06172839506172839,15.987654320987653,0)" xlink:href="#S"/><use transform="matrix(0.06172839506172839,0,0,0.06172839506172839,22.160493827160494,0)" xlink:href="#T"/><use transform="matrix(0.06172839506172839,0,0,0.06172839506172839,36.9753086419753,0)" xlink:href="#U"/><use transform="matrix(0.06172839506172839,0,0,0.06172839506172839,52.962962962962955,0)" xlink:href="#V"/><use transform="matrix(0.06172839506172839,0,0,0.06172839506172839,60.30864197530863,0)" xlink:href="#W"/></g><path d="M115-194c55 1 70 41 70 98S169 2 115 4C84 4 66-9 55-30l1 105H24l-1-265h31l2 30c10-21 28-34 59-34zm-8 174c40 0 45-34 45-75s-6-73-45-74c-42 0-51 32-51 76 0 43 10 73 51 73" id="aq"/><g id="k"><use transform="matrix(0.06172839506172839,0,0,0.06172839506172839,0,0)" xlink:href="#Q"/><use transform="matrix(0.06172839506172839,0,0,0.06172839506172839,6.172839506172839,0)" xlink:href="#N"/><use transform="matrix(0.06172839506172839,0,0,0.06172839506172839,13.518518518518519,0)" xlink:href="#ag"/><use transform="matrix(0.06172839506172839,0,0,0.06172839506172839,25.864197530864196,0)" xlink:href="#ak"/><use transform="matrix(0.06172839506172839,0,0,0.06172839506172839,38.20987654320987,0)" xlink:href="#P"/><use transform="matrix(0.06172839506172839,0,0,0.06172839506172839,49.32098765432099,0)" xlink:href="#aq"/><use transform="matrix(0.06172839506172839,0,0,0.06172839506172839,61.666666666666664,0)" xlink:href="#ai"/><use transform="matrix(0.06172839506172839,0,0,0.06172839506172839,66.5432098765432,0)" xlink:href="#ao"/><use transform="matrix(0.06172839506172839,0,0,0.06172839506172839,71.41975308641975,0)" xlink:href="#ae"/><use transform="matrix(0.06172839506172839,0,0,0.06172839506172839,83.76543209876543,0)" xlink:href="#N"/></g><g id="l"><use transform="matrix(0.06172839506172839,0,0,0.06172839506172839,0,0)" xlink:href="#ak"/><use transform="matrix(0.06172839506172839,0,0,0.06172839506172839,12.345679012345679,0)" xlink:href="#ag"/><use transform="matrix(0.06172839506172839,0,0,0.06172839506172839,24.691358024691358,0)" xlink:href="#Q"/><use transform="matrix(0.06172839506172839,0,0,0.06172839506172839,30.864197530864196,0)" xlink:href="#ai"/><use transform="matrix(0.06172839506172839,0,0,0.06172839506172839,35.74074074074074,0)" xlink:href="#ap"/><use transform="matrix(0.06172839506172839,0,0,0.06172839506172839,46.85185185185185,0)" xlink:href="#ae"/></g><path d="M101-234c-31-9-42 10-38 44h38v23H63V0H32v-167H5v-23h27c-7-52 17-82 69-68v24" id="ar"/><path d="M85-194c31 0 48 13 60 33l-1-100h32l1 261h-30c-2-10 0-23-3-31C134-8 116 4 85 4 32 4 16-35 15-94c0-66 23-100 70-100zm9 24c-40 0-46 34-46 75 0 40 6 74 45 74 42 0 51-32 51-76 0-42-9-74-50-73" id="as"/><g id="m"><use transform="matrix(0.06172839506172839,0,0,0.06172839506172839,0,0)" xlink:href="#ar"/><use transform="matrix(0.06172839506172839,0,0,0.06172839506172839,6.172839506172839,0)" xlink:href="#ai"/><use transform="matrix(0.06172839506172839,0,0,0.06172839506172839,11.049382716049383,0)" xlink:href="#ae"/><use transform="matrix(0.06172839506172839,0,0,0.06172839506172839,23.395061728395063,0)" xlink:href="#ao"/><use transform="matrix(0.06172839506172839,0,0,0.06172839506172839,28.271604938271608,0)" xlink:href="#as"/></g><g id="n"><use transform="matrix(0.06172839506172839,0,0,0.06172839506172839,0,0)" xlink:href="#ag"/><use transform="matrix(0.06172839506172839,0,0,0.06172839506172839,12.345679012345679,0)" xlink:href="#an"/><use transform="matrix(0.06172839506172839,0,0,0.06172839506172839,23.45679012345679,0)" xlink:href="#W"/><use transform="matrix(0.06172839506172839,0,0,0.06172839506172839,38.27160493827161,0)" xlink:href="#ac"/></g><path d="M179-190L93 31C79 59 56 82 12 73V49c39 6 53-20 64-50L1-190h34L92-34l54-156h33" id="at"/><g id="o"><use transform="matrix(0.06172839506172839,0,0,0.06172839506172839,0,0)" xlink:href="#ag"/><use transform="matrix(0.06172839506172839,0,0,0.06172839506172839,12.345679012345679,0)" xlink:href="#P"/><use transform="matrix(0.06172839506172839,0,0,0.06172839506172839,23.45679012345679,0)" xlink:href="#P"/><use transform="matrix(0.06172839506172839,0,0,0.06172839506172839,34.5679012345679,0)" xlink:href="#ae"/><use transform="matrix(0.06172839506172839,0,0,0.06172839506172839,46.913580246913575,0)" xlink:href="#am"/><use transform="matrix(0.06172839506172839,0,0,0.06172839506172839,65.37037037037037,0)" xlink:href="#ah"/><use transform="matrix(0.06172839506172839,0,0,0.06172839506172839,77.71604938271605,0)" xlink:href="#ao"/><use transform="matrix(0.06172839506172839,0,0,0.06172839506172839,82.5925925925926,0)" xlink:href="#at"/></g><path d="M30-248c118-7 216 8 213 122C240-48 200 0 122 0H30v-248zM63-27c89 8 146-16 146-99s-60-101-146-95v194" id="au"/><g id="p"><use transform="matrix(0.06172839506172839,0,0,0.06172839506172839,0,0)" xlink:href="#ae"/><use transform="matrix(0.06172839506172839,0,0,0.06172839506172839,12.345679012345679,0)" xlink:href="#au"/><use transform="matrix(0.06172839506172839,0,0,0.06172839506172839,28.333333333333332,0)" xlink:href="#T"/><use transform="matrix(0.06172839506172839,0,0,0.06172839506172839,43.148148148148145,0)" xlink:href="#Y"/></g><g id="q"><use transform="matrix(0.06172839506172839,0,0,0.06172839506172839,0,0)" xlink:href="#ak"/><use transform="matrix(0.06172839506172839,0,0,0.06172839506172839,12.345679012345679,0)" xlink:href="#ag"/><use transform="matrix(0.06172839506172839,0,0,0.06172839506172839,24.691358024691358,0)" xlink:href="#Q"/><use transform="matrix(0.06172839506172839,0,0,0.06172839506172839,30.864197530864196,0)" xlink:href="#ai"/><use transform="matrix(0.06172839506172839,0,0,0.06172839506172839,35.74074074074074,0)" xlink:href="#ap"/><use transform="matrix(0.06172839506172839,0,0,0.06172839506172839,46.85185185185185,0)" xlink:href="#ae"/></g><g id="r"><use transform="matrix(0.06172839506172839,0,0,0.06172839506172839,0,0)" xlink:href="#af"/><use transform="matrix(0.06172839506172839,0,0,0.06172839506172839,11.11111111111111,0)" xlink:href="#al"/><use transform="matrix(0.06172839506172839,0,0,0.06172839506172839,23.45679012345679,0)" xlink:href="#am"/><use transform="matrix(0.06172839506172839,0,0,0.06172839506172839,41.91358024691358,0)" xlink:href="#aq"/><use transform="matrix(0.06172839506172839,0,0,0.06172839506172839,54.25925925925926,0)" xlink:href="#ai"/><use transform="matrix(0.06172839506172839,0,0,0.06172839506172839,59.135802469135804,0)" xlink:href="#ao"/><use transform="matrix(0.06172839506172839,0,0,0.06172839506172839,64.01234567901234,0)" xlink:href="#ae"/><use transform="matrix(0.06172839506172839,0,0,0.06172839506172839,76.35802469135803,0)" xlink:href="#N"/></g><path d="M33 0v-38h34V0H33" id="av"/><g id="s"><use transform="matrix(0.06172839506172839,0,0,0.06172839506172839,0,0)" xlink:href="#av"/><use transform="matrix(0.06172839506172839,0,0,0.06172839506172839,6.172839506172839,0)" xlink:href="#av"/><use transform="matrix(0.06172839506172839,0,0,0.06172839506172839,12.345679012345679,0)" xlink:href="#av"/></g><g id="t"><use transform="matrix(0.06172839506172839,0,0,0.06172839506172839,0,0)" xlink:href="#W"/><use transform="matrix(0.06172839506172839,0,0,0.06172839506172839,14.382716049382715,0)" xlink:href="#ai"/><use transform="matrix(0.06172839506172839,0,0,0.06172839506172839,19.25925925925926,0)" xlink:href="#N"/><use transform="matrix(0.06172839506172839,0,0,0.06172839506172839,26.604938271604937,0)" xlink:href="#Q"/><use transform="matrix(0.06172839506172839,0,0,0.06172839506172839,32.77777777777778,0)" xlink:href="#O"/><use transform="matrix(0.06172839506172839,0,0,0.06172839506172839,45.123456790123456,0)" xlink:href="#ag"/><use transform="matrix(0.06172839506172839,0,0,0.06172839506172839,57.46913580246913,0)" xlink:href="#ao"/></g><path d="M106-169C34-169 62-67 57 0H25v-261h32l-1 103c12-21 28-36 61-36 89 0 53 116 60 194h-32v-121c2-32-8-49-39-48" id="aw"/><g id="u"><use transform="matrix(0.06172839506172839,0,0,0.06172839506172839,0,0)" xlink:href="#ac"/><use transform="matrix(0.06172839506172839,0,0,0.06172839506172839,18.456790123456788,0)" xlink:href="#ag"/><use transform="matrix(0.06172839506172839,0,0,0.06172839506172839,30.80246913580247,0)" xlink:href="#af"/><use transform="matrix(0.06172839506172839,0,0,0.06172839506172839,41.91358024691358,0)" xlink:href="#aw"/><use transform="matrix(0.06172839506172839,0,0,0.06172839506172839,54.25925925925926,0)" xlink:href="#ai"/><use transform="matrix(0.06172839506172839,0,0,0.06172839506172839,59.135802469135804,0)" xlink:href="#ak"/><use transform="matrix(0.06172839506172839,0,0,0.06172839506172839,71.48148148148148,0)" xlink:href="#ae"/></g><g id="v"><use transform="matrix(0.06172839506172839,0,0,0.06172839506172839,0,0)" xlink:href="#ac"/><use transform="matrix(0.06172839506172839,0,0,0.06172839506172839,18.456790123456788,0)" xlink:href="#ae"/><use transform="matrix(0.06172839506172839,0,0,0.06172839506172839,30.80246913580247,0)" xlink:href="#am"/><use transform="matrix(0.06172839506172839,0,0,0.06172839506172839,49.25925925925925,0)" xlink:href="#al"/><use transform="matrix(0.06172839506172839,0,0,0.06172839506172839,61.60493827160493,0)" xlink:href="#N"/><use transform="matrix(0.06172839506172839,0,0,0.06172839506172839,68.9506172839506,0)" xlink:href="#at"/></g><path d="M30-248c87 1 191-15 191 75 0 78-77 80-158 76V0H30v-248zm33 125c57 0 124 11 124-50 0-59-68-47-124-48v98" id="ax"/><g id="w"><use transform="matrix(0.06172839506172839,0,0,0.06172839506172839,0,0)" xlink:href="#ax"/><use transform="matrix(0.06172839506172839,0,0,0.06172839506172839,14.814814814814813,0)" xlink:href="#N"/><use transform="matrix(0.06172839506172839,0,0,0.06172839506172839,22.160493827160494,0)" xlink:href="#al"/><use transform="matrix(0.06172839506172839,0,0,0.06172839506172839,34.50617283950617,0)" xlink:href="#aj"/><use transform="matrix(0.06172839506172839,0,0,0.06172839506172839,46.85185185185185,0)" xlink:href="#N"/><use transform="matrix(0.06172839506172839,0,0,0.06172839506172839,54.197530864197525,0)" xlink:href="#ag"/><use transform="matrix(0.06172839506172839,0,0,0.06172839506172839,66.5432098765432,0)" xlink:href="#am"/></g><path d="M205 0l-28-72H64L36 0H1l101-248h38L239 0h-34zm-38-99l-47-123c-12 45-31 82-46 123h93" id="ay"/><g id="x"><use transform="matrix(0.06172839506172839,0,0,0.06172839506172839,0,0)" xlink:href="#R"/><use transform="matrix(0.06172839506172839,0,0,0.06172839506172839,15.987654320987653,0)" xlink:href="#ap"/><use transform="matrix(0.06172839506172839,0,0,0.06172839506172839,27.098765432098766,0)" xlink:href="#aa"/><use transform="matrix(0.06172839506172839,0,0,0.06172839506172839,39.44444444444444,0)" xlink:href="#ab"/><use transform="matrix(0.06172839506172839,0,0,0.06172839506172839,51.79012345679012,0)" xlink:href="#ay"/><use transform="matrix(0.06172839506172839,0,0,0.06172839506172839,66.60493827160494,0)" xlink:href="#ao"/><use transform="matrix(0.06172839506172839,0,0,0.06172839506172839,71.48148148148148,0)" xlink:href="#O"/><use transform="matrix(0.06172839506172839,0,0,0.06172839506172839,83.82716049382717,0)" xlink:href="#U"/><use transform="matrix(0.06172839506172839,0,0,0.06172839506172839,99.81481481481482,0)" xlink:href="#aw"/><use transform="matrix(0.06172839506172839,0,0,0.06172839506172839,112.16049382716051,0)" xlink:href="#ai"/><use transform="matrix(0.06172839506172839,0,0,0.06172839506172839,117.03703703703705,0)" xlink:href="#aq"/></g><path d="M194 0L95-120 63-95V0H30v-248h33v124l119-124h40L117-140 236 0h-42" id="az"/><g id="y"><use transform="matrix(0.06172839506172839,0,0,0.06172839506172839,0,0)" xlink:href="#az"/><use transform="matrix(0.06172839506172839,0,0,0.06172839506172839,14.814814814814813,0)" xlink:href="#ae"/><use transform="matrix(0.06172839506172839,0,0,0.06172839506172839,27.160493827160494,0)" xlink:href="#af"/><use transform="matrix(0.06172839506172839,0,0,0.06172839506172839,38.27160493827161,0)" xlink:href="#af"/><use transform="matrix(0.06172839506172839,0,0,0.06172839506172839,49.38271604938272,0)" xlink:href="#ag"/><use transform="matrix(0.06172839506172839,0,0,0.06172839506172839,61.7283950617284,0)" xlink:href="#ad"/><use transform="matrix(0.06172839506172839,0,0,0.06172839506172839,72.8395061728395,0)" xlink:href="#U"/><use transform="matrix(0.06172839506172839,0,0,0.06172839506172839,88.82716049382717,0)" xlink:href="#aw"/><use transform="matrix(0.06172839506172839,0,0,0.06172839506172839,101.17283950617285,0)" xlink:href="#ai"/><use transform="matrix(0.06172839506172839,0,0,0.06172839506172839,106.0493827160494,0)" xlink:href="#aq"/></g><path d="M54-142c48-35 137-8 131 61C196 18 31 33 14-55l32-4c7 23 22 37 52 37 35-1 51-22 54-58 4-55-73-65-99-34H22l8-134h141v27H59" id="aA"/><path d="M110-160c48 1 74 30 74 79 0 53-28 85-80 85-65 0-83-55-86-122-5-90 50-162 133-122 14 7 22 21 27 39l-31 6c-5-40-67-38-82-6-9 19-15 44-15 74 11-20 30-34 60-33zm-7 138c34 0 49-23 49-58s-16-56-50-56c-29 0-50 16-49 49 1 36 15 65 50 65" id="aB"/><g id="z"><use transform="matrix(0.06172839506172839,0,0,0.06172839506172839,0,0)" xlink:href="#R"/><use transform="matrix(0.06172839506172839,0,0,0.06172839506172839,15.987654320987653,0)" xlink:href="#ap"/><use transform="matrix(0.06172839506172839,0,0,0.06172839506172839,27.098765432098766,0)" xlink:href="#aa"/><use transform="matrix(0.06172839506172839,0,0,0.06172839506172839,39.44444444444444,0)" xlink:href="#ab"/><use transform="matrix(0.06172839506172839,0,0,0.06172839506172839,51.79012345679012,0)" xlink:href="#ay"/><use transform="matrix(0.06172839506172839,0,0,0.06172839506172839,66.60493827160494,0)" xlink:href="#ao"/><use transform="matrix(0.06172839506172839,0,0,0.06172839506172839,71.48148148148148,0)" xlink:href="#O"/><use transform="matrix(0.06172839506172839,0,0,0.06172839506172839,83.82716049382717,0)" xlink:href="#ab"/><use transform="matrix(0.06172839506172839,0,0,0.06172839506172839,96.17283950617285,0)" xlink:href="#aA"/><use transform="matrix(0.06172839506172839,0,0,0.06172839506172839,108.51851851851853,0)" xlink:href="#aB"/><use transform="matrix(0.06172839506172839,0,0,0.06172839506172839,120.86419753086422,0)" xlink:href="#U"/><use transform="matrix(0.06172839506172839,0,0,0.06172839506172839,136.85185185185188,0)" xlink:href="#aw"/><use transform="matrix(0.06172839506172839,0,0,0.06172839506172839,149.19753086419755,0)" xlink:href="#ai"/><use transform="matrix(0.06172839506172839,0,0,0.06172839506172839,154.07407407407408,0)" xlink:href="#aq"/></g><path d="M190 0L58-211 59 0H30v-248h39L202-35l-2-213h31V0h-41" id="aC"/><g id="A"><use transform="matrix(0.06172839506172839,0,0,0.06172839506172839,0,0)" xlink:href="#aC"/><use transform="matrix(0.06172839506172839,0,0,0.06172839506172839,15.987654320987653,0)" xlink:href="#ag"/><use transform="matrix(0.06172839506172839,0,0,0.06172839506172839,28.333333333333332,0)" xlink:href="#Q"/><use transform="matrix(0.06172839506172839,0,0,0.06172839506172839,34.50617283950617,0)" xlink:href="#ai"/><use transform="matrix(0.06172839506172839,0,0,0.06172839506172839,39.382716049382715,0)" xlink:href="#ap"/><use transform="matrix(0.06172839506172839,0,0,0.06172839506172839,50.49382716049382,0)" xlink:href="#ae"/><use transform="matrix(0.06172839506172839,0,0,0.06172839506172839,62.8395061728395,0)" xlink:href="#Z"/><use transform="matrix(0.06172839506172839,0,0,0.06172839506172839,76.35802469135801,0)" xlink:href="#ai"/><use transform="matrix(0.06172839506172839,0,0,0.06172839506172839,81.23456790123456,0)" xlink:href="#ae"/><use transform="matrix(0.06172839506172839,0,0,0.06172839506172839,93.58024691358024,0)" xlink:href="#ao"/><use transform="matrix(0.06172839506172839,0,0,0.06172839506172839,98.45679012345678,0)" xlink:href="#as"/><use transform="matrix(0.06172839506172839,0,0,0.06172839506172839,110.80246913580247,0)" xlink:href="#ay"/><use transform="matrix(0.06172839506172839,0,0,0.06172839506172839,125.61728395061728,0)" xlink:href="#N"/><use transform="matrix(0.06172839506172839,0,0,0.06172839506172839,132.96296296296296,0)" xlink:href="#ai"/><use transform="matrix(0.06172839506172839,0,0,0.06172839506172839,137.8395061728395,0)" xlink:href="#Q"/><use transform="matrix(0.06172839506172839,0,0,0.06172839506172839,144.01234567901233,0)" xlink:href="#aw"/><use transform="matrix(0.06172839506172839,0,0,0.06172839506172839,156.358024691358,0)" xlink:href="#U"/><use transform="matrix(0.06172839506172839,0,0,0.06172839506172839,172.34567901234564,0)" xlink:href="#aw"/><use transform="matrix(0.06172839506172839,0,0,0.06172839506172839,184.6913580246913,0)" xlink:href="#ai"/><use transform="matrix(0.06172839506172839,0,0,0.06172839506172839,189.56790123456784,0)" xlink:href="#aq"/></g><g id="B"><use transform="matrix(0.06172839506172839,0,0,0.06172839506172839,0,0)" xlink:href="#U"/><use transform="matrix(0.06172839506172839,0,0,0.06172839506172839,15.987654320987653,0)" xlink:href="#O"/><use transform="matrix(0.06172839506172839,0,0,0.06172839506172839,28.333333333333332,0)" xlink:href="#P"/><use transform="matrix(0.06172839506172839,0,0,0.06172839506172839,39.44444444444444,0)" xlink:href="#Q"/><use transform="matrix(0.06172839506172839,0,0,0.06172839506172839,45.617283950617285,0)" xlink:href="#al"/><use transform="matrix(0.06172839506172839,0,0,0.06172839506172839,57.96296296296296,0)" xlink:href="#am"/></g><g id="C"><use transform="matrix(0.06172839506172839,0,0,0.06172839506172839,0,0)" xlink:href="#W"/><use transform="matrix(0.06172839506172839,0,0,0.06172839506172839,14.814814814814813,0)" xlink:href="#ac"/></g><g id="D"><use transform="matrix(0.06172839506172839,0,0,0.06172839506172839,0,0)" xlink:href="#X"/><use transform="matrix(0.06172839506172839,0,0,0.06172839506172839,14.814814814814813,0)" xlink:href="#an"/><use transform="matrix(0.06172839506172839,0,0,0.06172839506172839,25.925925925925924,0)" xlink:href="#Q"/><use transform="matrix(0.06172839506172839,0,0,0.06172839506172839,32.098765432098766,0)" xlink:href="#ae"/><use transform="matrix(0.06172839506172839,0,0,0.06172839506172839,44.44444444444444,0)" xlink:href="#ak"/><use transform="matrix(0.06172839506172839,0,0,0.06172839506172839,56.79012345679012,0)" xlink:href="#P"/><use transform="matrix(0.06172839506172839,0,0,0.06172839506172839,67.90123456790123,0)" xlink:href="#ai"/><use transform="matrix(0.06172839506172839,0,0,0.06172839506172839,72.77777777777777,0)" xlink:href="#al"/><use transform="matrix(0.06172839506172839,0,0,0.06172839506172839,85.12345679012346,0)" xlink:href="#ak"/><use transform="matrix(0.06172839506172839,0,0,0.06172839506172839,97.46913580246914,0)" xlink:href="#P"/></g><g id="E"><use transform="matrix(0.06172839506172839,0,0,0.06172839506172839,0,0)" xlink:href="#T"/><use transform="matrix(0.06172839506172839,0,0,0.06172839506172839,14.814814814814813,0)" xlink:href="#Q"/><use transform="matrix(0.06172839506172839,0,0,0.06172839506172839,20.98765432098765,0)" xlink:href="#ag"/><use transform="matrix(0.06172839506172839,0,0,0.06172839506172839,33.33333333333333,0)" xlink:href="#N"/><use transform="matrix(0.06172839506172839,0,0,0.06172839506172839,40.679012345679006,0)" xlink:href="#ad"/></g><path d="M160-131c35 5 61 23 61 61C221 17 115-2 30 0v-248c76 3 177-17 177 60 0 33-19 50-47 57zm-97-11c50-1 110 9 110-42 0-47-63-36-110-37v79zm0 115c55-2 124 14 124-45 0-56-70-42-124-44v89" id="aD"/><g id="F"><use transform="matrix(0.06172839506172839,0,0,0.06172839506172839,0,0)" xlink:href="#aD"/><use transform="matrix(0.06172839506172839,0,0,0.06172839506172839,14.814814814814813,0)" xlink:href="#ag"/><use transform="matrix(0.06172839506172839,0,0,0.06172839506172839,27.160493827160494,0)" xlink:href="#af"/><use transform="matrix(0.06172839506172839,0,0,0.06172839506172839,38.27160493827161,0)" xlink:href="#ad"/><use transform="matrix(0.06172839506172839,0,0,0.06172839506172839,49.38271604938272,0)" xlink:href="#ae"/><use transform="matrix(0.06172839506172839,0,0,0.06172839506172839,61.7283950617284,0)" xlink:href="#ak"/><use transform="matrix(0.06172839506172839,0,0,0.06172839506172839,74.07407407407408,0)" xlink:href="#as"/></g><g id="G"><use transform="matrix(0.06172839506172839,0,0,0.06172839506172839,0,0)" xlink:href="#aq"/><use transform="matrix(0.06172839506172839,0,0,0.06172839506172839,12.345679012345679,0)" xlink:href="#ao"/><use transform="matrix(0.06172839506172839,0,0,0.06172839506172839,17.22222222222222,0)" xlink:href="#al"/><use transform="matrix(0.06172839506172839,0,0,0.06172839506172839,29.5679012345679,0)" xlink:href="#ak"/><use transform="matrix(0.06172839506172839,0,0,0.06172839506172839,41.913580246913575,0)" xlink:href="#ad"/><use transform="matrix(0.06172839506172839,0,0,0.06172839506172839,53.02469135802468,0)" xlink:href="#at"/><use transform="matrix(0.06172839506172839,0,0,0.06172839506172839,64.1358024691358,0)" xlink:href="#aa"/></g><path d="M87 75C49 33 22-17 22-94c0-76 28-126 65-167h31c-38 41-64 92-64 168S80 34 118 75H87" id="aE"/><path d="M33-261c38 41 65 92 65 168S71 34 33 75H2C39 34 66-17 66-93S39-220 2-261h31" id="aF"/><g id="H"><use transform="matrix(0.06172839506172839,0,0,0.06172839506172839,0,0)" xlink:href="#aE"/><use transform="matrix(0.06172839506172839,0,0,0.06172839506172839,7.345679012345679,0)" xlink:href="#Z"/><use transform="matrix(0.06172839506172839,0,0,0.06172839506172839,20.864197530864196,0)" xlink:href="#R"/><use transform="matrix(0.06172839506172839,0,0,0.06172839506172839,36.85185185185185,0)" xlink:href="#S"/><use transform="matrix(0.06172839506172839,0,0,0.06172839506172839,43.02469135802469,0)" xlink:href="#aF"/></g><path d="M143 4C61 4 22-44 18-125c-5-107 100-154 193-111 17 8 29 25 37 43l-32 9c-13-25-37-40-76-40-61 0-88 39-88 99 0 61 29 100 91 101 35 0 62-11 79-27v-45h-74v-28h105v86C228-13 192 4 143 4" id="aG"/><g id="I"><use transform="matrix(0.06172839506172839,0,0,0.06172839506172839,0,0)" xlink:href="#aG"/><use transform="matrix(0.06172839506172839,0,0,0.06172839506172839,17.28395061728395,0)" xlink:href="#az"/><use transform="matrix(0.06172839506172839,0,0,0.06172839506172839,32.09876543209876,0)" xlink:href="#R"/></g><g id="J"><use transform="matrix(0.06172839506172839,0,0,0.06172839506172839,0,0)" xlink:href="#Z"/><use transform="matrix(0.06172839506172839,0,0,0.06172839506172839,13.518518518518517,0)" xlink:href="#O"/><use transform="matrix(0.06172839506172839,0,0,0.06172839506172839,25.864197530864196,0)" xlink:href="#Q"/><use transform="matrix(0.06172839506172839,0,0,0.06172839506172839,32.03703703703704,0)" xlink:href="#O"/><use transform="matrix(0.06172839506172839,0,0,0.06172839506172839,44.382716049382715,0)" xlink:href="#N"/><use transform="matrix(0.06172839506172839,0,0,0.06172839506172839,51.72839506172839,0)" xlink:href="#ae"/></g><g id="K"><use transform="matrix(0.06172839506172839,0,0,0.06172839506172839,0,0)" xlink:href="#aq"/><use transform="matrix(0.06172839506172839,0,0,0.06172839506172839,12.345679012345679,0)" xlink:href="#N"/><use transform="matrix(0.06172839506172839,0,0,0.06172839506172839,19.691358024691358,0)" xlink:href="#al"/><use transform="matrix(0.06172839506172839,0,0,0.06172839506172839,32.03703703703704,0)" xlink:href="#al"/><use transform="matrix(0.06172839506172839,0,0,0.06172839506172839,44.382716049382715,0)" xlink:href="#ar"/></g><g id="L"><use transform="matrix(0.06172839506172839,0,0,0.06172839506172839,0,0)" xlink:href="#P"/><use transform="matrix(0.06172839506172839,0,0,0.06172839506172839,11.11111111111111,0)" xlink:href="#at"/><use transform="matrix(0.06172839506172839,0,0,0.06172839506172839,22.22222222222222,0)" xlink:href="#P"/><use transform="matrix(0.06172839506172839,0,0,0.06172839506172839,33.33333333333333,0)" xlink:href="#Q"/><use transform="matrix(0.06172839506172839,0,0,0.06172839506172839,39.50617283950617,0)" xlink:href="#ae"/><use transform="matrix(0.06172839506172839,0,0,0.06172839506172839,51.85185185185185,0)" xlink:href="#am"/><use transform="matrix(0.06172839506172839,0,0,0.06172839506172839,70.30864197530863,0)" xlink:href="#P"/></g><g id="M"><use transform="matrix(0.06172839506172839,0,0,0.06172839506172839,0,0)" xlink:href="#Q"/><use transform="matrix(0.06172839506172839,0,0,0.06172839506172839,6.172839506172839,0)" xlink:href="#N"/><use transform="matrix(0.06172839506172839,0,0,0.06172839506172839,13.518518518518519,0)" xlink:href="#ag"/><use transform="matrix(0.06172839506172839,0,0,0.06172839506172839,25.864197530864196,0)" xlink:href="#ak"/><use transform="matrix(0.06172839506172839,0,0,0.06172839506172839,38.20987654320987,0)" xlink:href="#P"/><use transform="matrix(0.06172839506172839,0,0,0.06172839506172839,49.32098765432099,0)" xlink:href="#aq"/><use transform="matrix(0.06172839506172839,0,0,0.06172839506172839,61.666666666666664,0)" xlink:href="#ai"/><use transform="matrix(0.06172839506172839,0,0,0.06172839506172839,66.5432098765432,0)" xlink:href="#ao"/><use transform="matrix(0.06172839506172839,0,0,0.06172839506172839,71.41975308641975,0)" xlink:href="#ae"/><use transform="matrix(0.06172839506172839,0,0,0.06172839506172839,83.76543209876543,0)" xlink:href="#N"/></g></defs></g></svg>