<svg width="1345" height="420" viewBox="0 0 1345 420" fill="none" xmlns="http://www.w3.org/2000/svg">
<g clip-path="url(#clip0_1861_17196)">
<path d="M333.2 250.859V251.581C333.098 253.307 332.567 254.98 331.654 256.448C330.741 257.917 329.475 259.133 327.972 259.988L318.006 265.766L214.828 325.278C213.238 326.192 211.434 326.67 209.6 326.665C207.767 326.66 205.966 326.182 204.372 325.278L101.194 265.766L91.2284 259.988C89.6307 259.075 88.3045 257.754 87.3858 256.16C86.467 254.566 85.9888 252.756 86.0002 250.916C86.002 249.087 86.4863 247.29 87.4043 245.707C88.3222 244.125 89.6413 242.813 91.2284 241.903L204.372 176.555C205.964 175.645 207.766 175.167 209.6 175.167C211.434 175.167 213.236 175.645 214.828 176.555L327.972 241.903C329.554 242.803 330.871 244.105 331.789 245.678C332.707 247.251 333.194 249.038 333.2 250.859Z" fill="#CBBAE4"/>
<path d="M116.099 242.451L204.806 191.375C206.292 190.523 207.975 190.075 209.687 190.075C211.4 190.075 213.083 190.523 214.569 191.375L303.016 242.451C304.504 243.303 305.741 244.534 306.602 246.017C307.462 247.501 307.915 249.186 307.915 250.902C307.915 252.617 307.462 254.302 306.602 255.786C305.741 257.27 304.504 258.5 303.016 259.352L214.396 310.486C212.91 311.338 211.227 311.785 209.514 311.785C207.801 311.785 206.119 311.338 204.632 310.486L116.013 259.352C114.536 258.486 113.312 257.248 112.465 255.76C111.618 254.273 111.176 252.589 111.185 250.877C111.194 249.165 111.652 247.485 112.515 246.006C113.377 244.528 114.613 243.302 116.099 242.451Z" fill="#7A63BA"/>
<path d="M209.6 326.635V356.276C207.767 356.271 205.966 355.793 204.372 354.889L91.2285 289.599C89.6288 288.689 88.3009 287.369 87.3818 285.774C86.4627 284.179 85.9859 282.368 86.0003 280.528V250.916C85.9889 252.756 86.4671 254.566 87.3859 256.16C88.3046 257.754 89.6309 259.075 91.2285 259.987L101.194 265.765L204.372 325.278C205.969 326.172 207.77 326.639 209.6 326.635Z" fill="#7A63BA"/>
<path d="M333.2 251.581V280.47C333.216 282.319 332.74 284.138 331.822 285.742C330.903 287.347 329.575 288.678 327.972 289.599L214.829 354.861C213.238 355.775 211.435 356.253 209.601 356.247V326.636C211.435 326.641 213.238 326.163 214.829 325.249L318.007 265.737L327.972 259.959C329.471 259.107 330.735 257.895 331.648 256.432C332.56 254.969 333.094 253.302 333.2 251.581Z" fill="#36156A"/>
<path d="M125.574 243.376L205.21 197.384C206.528 196.624 208.022 196.223 209.543 196.223C211.064 196.223 212.559 196.624 213.876 197.384L293.628 243.376C294.989 244.124 296.125 245.223 296.916 246.56C297.707 247.896 298.125 249.421 298.125 250.974C298.125 252.527 297.707 254.052 296.916 255.389C296.125 256.725 294.989 257.825 293.628 258.572L213.991 304.506C212.674 305.267 211.18 305.668 209.659 305.668C208.137 305.668 206.643 305.267 205.326 304.506L125.66 258.572C124.295 257.833 123.153 256.74 122.354 255.408C121.555 254.075 121.129 252.553 121.12 251C121.112 249.447 121.52 247.92 122.304 246.578C123.087 245.237 124.217 244.131 125.574 243.376Z" fill="#28055D"/>
<path d="M95.9371 280.817L135.019 303.38V296.822L95.9371 274.548V280.817Z" fill="#F3E1FF"/>
<path d="M333.2 195.304V195.997C333.101 197.724 332.57 199.398 331.657 200.867C330.744 202.336 329.477 203.552 327.972 204.404L318.006 210.182L214.828 269.694C213.24 270.617 211.437 271.106 209.6 271.11C207.765 271.095 205.964 270.607 204.372 269.694L101.194 210.182L91.2287 204.404C89.627 203.497 88.2975 202.177 87.3781 200.581C86.4587 198.986 85.983 197.174 86.0005 195.333C86.0059 193.5 86.4914 191.701 87.4088 190.114C88.3261 188.528 89.6432 187.209 91.2287 186.29L204.372 120.971C205.96 120.048 207.764 119.561 209.6 119.561C211.437 119.561 213.241 120.048 214.828 120.971L327.972 186.29C329.559 187.2 330.878 188.513 331.796 190.095C332.714 191.678 333.198 193.474 333.2 195.304Z" fill="#CBBAE4"/>
<path d="M116.099 186.897L204.805 135.705C206.291 134.853 207.974 134.406 209.687 134.406C211.399 134.406 213.082 134.853 214.568 135.705L303.015 186.868C304.503 187.724 305.739 188.957 306.599 190.443C307.458 191.929 307.911 193.616 307.911 195.333C307.911 197.05 307.458 198.736 306.599 200.222C305.739 201.708 304.503 202.941 303.015 203.797L214.482 254.932C213 255.797 211.316 256.254 209.6 256.254C207.884 256.254 206.2 255.797 204.718 254.932L116.099 203.797C114.617 202.939 113.388 201.707 112.533 200.224C111.678 198.741 111.228 197.059 111.228 195.347C111.228 193.635 111.678 191.953 112.533 190.47C113.388 188.987 114.617 187.755 116.099 186.897Z" fill="#7A63BA"/>
<path d="M209.6 271.081V300.722C207.765 300.707 205.964 300.219 204.372 299.306L91.2287 234.045C89.6313 233.139 88.3044 231.824 87.3853 230.234C86.4662 228.645 85.9882 226.839 86.0005 225.002V195.333C85.983 197.174 86.4587 198.986 87.3781 200.581C88.2975 202.176 89.627 203.496 91.2287 204.404L101.194 210.182L204.372 269.694C205.967 270.597 207.767 271.075 209.6 271.081Z" fill="#7A63BA"/>
<path d="M333.2 195.997V224.887C333.217 226.732 332.741 228.548 331.822 230.147C330.903 231.747 329.574 233.072 327.972 233.987L214.829 299.248C213.241 300.171 211.437 300.66 209.601 300.664V271.081C211.437 271.077 213.241 270.588 214.829 269.666L318.007 210.153L327.972 204.375C329.473 203.526 330.738 202.314 331.651 200.851C332.564 199.387 333.097 197.719 333.2 195.997Z" fill="#36156A"/>
<path d="M125.574 187.735L205.21 141.743C206.532 140.996 208.025 140.604 209.543 140.604C211.061 140.604 212.554 140.996 213.876 141.743L293.512 187.735C294.874 188.482 296.01 189.582 296.801 190.918C297.592 192.255 298.009 193.78 298.009 195.333C298.009 196.886 297.592 198.411 296.801 199.748C296.01 201.084 294.874 202.184 293.512 202.931L213.876 248.865C212.559 249.626 211.064 250.026 209.543 250.026C208.022 250.026 206.528 249.626 205.21 248.865L125.574 202.931C124.212 202.184 123.077 201.084 122.286 199.748C121.494 198.411 121.077 196.886 121.077 195.333C121.077 193.78 121.494 192.255 122.286 190.918C123.077 189.582 124.212 188.482 125.574 187.735Z" fill="#28055D"/>
<path d="M95.9371 225.262L135.019 247.825V241.238L95.9371 218.965V225.262Z" fill="#F3E1FF"/>
<path d="M333.2 139.749V140.443C333.098 142.169 332.567 143.842 331.654 145.31C330.741 146.779 329.475 147.995 327.972 148.85L318.006 154.627L214.828 214.14C213.24 215.063 211.437 215.551 209.6 215.555C207.765 215.54 205.964 215.053 204.372 214.14L101.194 154.627L91.2284 148.85C89.6307 147.937 88.3045 146.616 87.3858 145.022C86.467 143.428 85.9888 141.618 86.0002 139.778C86.0027 137.945 86.4872 136.145 87.4048 134.558C88.3224 132.97 89.641 131.653 91.2284 130.736L204.372 65.3879C205.964 64.4784 207.766 64 209.6 64C211.434 64 213.236 64.4784 214.828 65.3879L327.972 130.707C329.563 131.619 330.885 132.936 331.803 134.524C332.721 136.112 333.203 137.915 333.2 139.749Z" fill="#CBBAE4"/>
<path d="M116.099 131.314L204.806 80.1216C206.292 79.2702 207.975 78.8223 209.687 78.8223C211.4 78.8223 213.083 79.2702 214.569 80.1216L303.016 131.314C304.504 132.166 305.741 133.396 306.602 134.88C307.462 136.364 307.915 138.049 307.915 139.764C307.915 141.479 307.462 143.164 306.602 144.648C305.741 146.132 304.504 147.362 303.016 148.214L214.396 199.349C212.91 200.2 211.227 200.648 209.514 200.648C207.801 200.648 206.119 200.2 204.632 199.349L116.013 148.214C114.536 147.349 113.312 146.11 112.465 144.623C111.618 143.135 111.176 141.451 111.185 139.739C111.194 138.027 111.652 136.347 112.515 134.869C113.377 133.39 114.613 132.164 116.099 131.314Z" fill="#7A63BA"/>
<path d="M209.6 215.526V245.138C207.767 245.133 205.966 244.656 204.372 243.752L91.2285 178.49C89.6288 177.58 88.3009 176.26 87.3818 174.665C86.4627 173.07 85.9859 171.26 86.0003 169.419V139.778C85.9889 141.618 86.4671 143.428 87.3859 145.022C88.3046 146.616 89.6309 147.937 91.2285 148.85L101.194 154.627L204.372 214.14C205.967 215.043 207.767 215.52 209.6 215.526Z" fill="#7A63BA"/>
<path d="M333.2 140.443V169.332C333.219 171.181 332.745 173.002 331.826 174.607C330.907 176.211 329.577 177.542 327.972 178.461L214.829 243.723C213.238 244.637 211.435 245.115 209.601 245.109V215.526C211.437 215.522 213.241 215.034 214.829 214.111L318.007 154.598L327.972 148.821C329.471 147.969 330.735 146.757 331.648 145.294C332.56 143.831 333.094 142.164 333.2 140.443Z" fill="#36156A"/>
<path d="M125.574 132.18L205.211 86.1882C206.528 85.4275 208.022 85.0271 209.543 85.0271C211.064 85.0271 212.559 85.4275 213.876 86.1882L293.512 132.18C294.867 132.93 295.996 134.028 296.782 135.362C297.568 136.696 297.983 138.216 297.983 139.764C297.983 141.312 297.568 142.832 296.782 144.165C295.996 145.499 294.867 146.598 293.512 147.347L213.876 193.31C212.559 194.071 211.064 194.472 209.543 194.472C208.022 194.472 206.528 194.071 205.211 193.31L125.545 147.376C124.185 146.626 123.051 145.525 122.263 144.187C121.474 142.848 121.06 141.323 121.063 139.77C121.066 138.216 121.486 136.693 122.28 135.357C123.073 134.022 124.211 132.925 125.574 132.18Z" fill="#7A63BA"/>
<path d="M95.9371 169.679L135.019 192.242V185.684L95.9371 163.41V169.679Z" fill="#F3E1FF"/>
</g>
<path d="M569.995 213.8C569.995 258.2 540.795 289.4 498.795 289.4C456.995 289.4 428.195 258.4 428.195 213.8C428.195 169.4 457.195 138.2 498.995 138.2C540.795 138.2 569.995 169.2 569.995 213.8ZM542.995 213.8C542.995 182.6 525.795 162.8 498.995 162.8C472.195 162.8 454.995 182.6 454.995 213.8C454.995 245 472.195 264.8 498.995 264.8C525.795 264.8 542.995 244.6 542.995 213.8ZM590.221 332.8V188.2H612.821L614.421 203.2C620.421 191.8 633.421 185.2 648.421 185.2C676.221 185.2 694.621 205.4 694.621 236.4C694.621 267.2 677.821 289.6 648.421 289.6C633.621 289.6 620.821 283.8 614.621 273.8V332.8H590.221ZM614.821 237.6C614.821 255.4 625.821 267.6 642.621 267.6C659.821 267.6 670.021 255.2 670.021 237.6C670.021 220 659.821 207.4 642.621 207.4C625.821 207.4 614.821 219.8 614.821 237.6ZM758.249 289.6C728.849 289.6 708.249 268.2 708.249 237.6C708.249 206.6 728.449 185.2 757.449 185.2C787.049 185.2 805.849 205 805.849 235.8V243.2L731.449 243.4C733.249 260.8 742.449 269.6 758.649 269.6C772.049 269.6 780.849 264.4 783.649 255H806.249C802.049 276.6 784.049 289.6 758.249 289.6ZM757.649 205.2C743.249 205.2 734.449 213 732.049 227.8H781.649C781.649 214.2 772.249 205.2 757.649 205.2ZM849.777 287H825.377V188.2H847.977L849.977 201C856.177 191 868.177 185.2 881.577 185.2C906.377 185.2 919.177 200.6 919.177 226.2V287H894.777V232C894.777 215.4 886.577 207.4 873.977 207.4C858.977 207.4 849.777 217.8 849.777 233.8V287ZM977.009 287L921.809 140.8H949.009L981.009 225C984.209 233.8 987.009 242.4 990.209 254.2C993.809 241.4 996.809 232.4 999.609 225L1031.21 140.8H1057.81L1003.41 287H977.009ZM1100.85 287H1076.05V140.8H1100.85L1148.05 257.2L1195.25 140.8H1220.45V287H1195.65V242C1195.65 212.6 1195.65 204 1197.05 193.6L1159.85 287H1136.25L1099.25 193.8C1100.65 202.6 1100.85 216.4 1100.85 234.6V287Z" fill="#42276E"/>
<defs>
<clipPath id="clip0_1861_17196">
<rect width="420" height="420" fill="white"/>
</clipPath>
</defs>
</svg>
