<svg width="420" height="420" viewBox="0 0 420 420" fill="none" xmlns="http://www.w3.org/2000/svg">
<path d="M383 267.921V268.922C382.858 271.315 382.119 273.634 380.848 275.669C379.578 277.704 377.816 279.391 375.725 280.575L361.857 288.584L218.276 371.078C216.062 372.345 213.553 373.008 211 373C208.449 372.993 205.944 372.331 203.725 371.078L60.1436 288.584L46.2758 280.575C44.0525 279.31 42.2069 277.479 40.9284 275.27C39.6499 273.06 38.9844 270.551 39.0003 268.001C39.0027 265.465 39.6767 262.974 40.9542 260.78C42.2316 258.587 44.0671 256.768 46.2758 255.507L203.725 164.924C205.941 163.663 208.448 163 211 163C213.552 163 216.06 163.663 218.276 164.924L375.725 255.507C377.927 256.755 379.76 258.56 381.037 260.74C382.315 262.919 382.992 265.397 383 267.921Z" fill="#CBBAE4"/>
<path d="M80.8446 256.157L204.392 184.815C206.462 183.626 208.806 183 211.191 183C213.577 183 215.92 183.626 217.99 184.815L341.176 256.157C343.249 257.347 344.972 259.065 346.171 261.138C347.369 263.21 348 265.564 348 267.96C348 270.356 347.369 272.709 346.171 274.782C344.972 276.854 343.249 278.573 341.176 279.763L217.749 351.185C215.679 352.374 213.335 353 210.95 353C208.565 353 206.221 352.374 204.151 351.185L80.724 279.763C78.667 278.554 76.963 276.824 75.7829 274.746C74.6027 272.668 73.988 270.316 74.0002 267.925C74.0124 265.534 74.6513 263.188 75.8526 261.122C77.0539 259.057 78.7753 257.344 80.8446 256.157Z" fill="#7A63BA"/>
<path d="M211 373.645V415C208.449 414.993 205.943 414.327 203.724 413.065L46.276 321.971C44.0498 320.702 42.2019 318.859 40.9229 316.634C39.644 314.41 38.9803 311.883 39.0004 309.315V268C38.9845 270.567 39.65 273.092 40.9286 275.316C42.2071 277.541 44.0526 279.384 46.276 280.656L60.1437 288.718L203.724 371.75C205.947 372.998 208.453 373.65 211 373.645Z" fill="#7A63BA"/>
<path d="M382.999 269V309.298C383.021 311.877 382.359 314.415 381.081 316.652C379.803 318.89 377.954 320.747 375.724 322.032L218.276 413.066C216.062 414.341 213.553 415.008 211 415V373.694C213.553 373.702 216.062 373.035 218.276 371.76L361.856 288.746L375.724 280.686C377.81 279.498 379.568 277.808 380.839 275.767C382.109 273.727 382.851 271.401 382.999 269Z" fill="#36156A"/>
<path d="M94.1895 257.488L204.868 193.613C206.699 192.556 208.776 192 210.89 192C213.004 192 215.081 192.556 216.911 193.613L327.75 257.488C329.643 258.526 331.221 260.053 332.32 261.909C333.42 263.765 334 265.883 334 268.04C334 270.197 333.42 272.315 332.32 274.171C331.221 276.027 329.643 277.554 327.75 278.592L217.072 342.387C215.241 343.444 213.164 344 211.05 344C208.936 344 206.859 343.444 205.029 342.387L94.3098 278.592C92.4116 277.565 90.8246 276.047 89.7146 274.197C88.6046 272.347 88.0125 270.233 88.0002 268.076C87.9879 265.918 88.5557 263.798 89.6445 261.935C90.7334 260.072 92.3032 258.536 94.1895 257.488Z" fill="#28055D"/>
<path d="M53 309.697L107 341V331.902L53 301V309.697Z" fill="#F3E1FF"/>
<path d="M383 190.456V191.421C382.862 193.825 382.124 196.157 380.853 198.201C379.582 200.246 377.819 201.94 375.725 203.126L361.857 211.171L218.276 294.029C216.066 295.314 213.556 295.994 211 296C208.446 295.979 205.941 295.3 203.725 294.029L60.1439 211.171L46.2762 203.126C44.0472 201.862 42.1971 200.025 40.9177 197.804C39.6383 195.583 38.9763 193.06 39.0006 190.496C39.0082 187.945 39.6839 185.439 40.9604 183.23C42.237 181.021 44.0698 179.186 46.2762 177.907L203.725 86.9633C205.934 85.6774 208.444 85 211 85C213.556 85 216.066 85.6774 218.276 86.9633L375.725 177.907C377.933 179.173 379.769 181 381.047 183.204C382.324 185.407 382.998 187.909 383 190.456Z" fill="#CBBAE4"/>
<path d="M80.7854 178.804L204.363 107.802C206.433 106.621 208.778 106 211.164 106C213.549 106 215.894 106.621 217.964 107.802L341.18 178.764C343.253 179.951 344.975 181.662 346.172 183.723C347.37 185.784 348 188.123 348 190.504C348 192.886 347.37 195.225 346.172 197.286C344.975 199.347 343.253 201.058 341.18 202.245L217.843 273.167C215.78 274.367 213.433 275 211.043 275C208.653 275 206.306 274.367 204.242 273.167L80.7854 202.245C78.7218 201.055 77.0087 199.346 75.8177 197.289C74.6268 195.232 74 192.899 74 190.525C74 188.15 74.6268 185.817 75.8177 183.76C77.0087 181.703 78.7218 179.994 80.7854 178.804Z" fill="#7A63BA"/>
<path d="M211 295.938V337C208.446 336.979 205.94 336.304 203.724 335.039L46.2761 244.63C44.0532 243.375 42.2068 241.553 40.9278 239.351C39.6488 237.149 38.9835 234.646 39.0006 232.103V191C38.9763 193.551 39.6383 196.061 40.9177 198.271C42.1971 200.481 44.0472 202.31 46.2761 203.567L60.1439 211.571L203.724 294.016C205.944 295.267 208.45 295.929 211 295.938Z" fill="#7A63BA"/>
<path d="M382.999 192V232.022C383.022 234.578 382.361 237.093 381.082 239.309C379.803 241.526 377.953 243.362 375.724 244.629L218.276 335.039C216.065 336.318 213.556 336.994 211 337V296.017C213.556 296.011 216.065 295.335 218.276 294.056L361.856 211.611L375.724 203.606C377.813 202.429 379.572 200.751 380.843 198.724C382.114 196.697 382.855 194.385 382.999 192Z" fill="#36156A"/>
<path d="M94.2519 180.47L204.976 116.583C206.814 115.545 208.889 115 211 115C213.111 115 215.186 115.545 217.024 116.583L327.748 180.47C329.641 181.508 331.22 183.036 332.32 184.893C333.42 186.749 334 188.867 334 191.025C334 193.182 333.42 195.3 332.32 197.157C331.22 199.014 329.641 200.541 327.748 201.579L217.024 265.387C215.193 266.444 213.115 267 211 267C208.885 267 206.807 266.444 204.976 265.387L94.2519 201.579C92.3589 200.541 90.7799 199.014 89.6801 197.157C88.5802 195.3 88 193.182 88 191.025C88 188.867 88.5802 186.749 89.6801 184.893C90.7799 183.036 92.3589 181.508 94.2519 180.47Z" fill="#28055D"/>
<path d="M53 232.729L107 264V254.871L53 224V232.729Z" fill="#F3E1FF"/>
<path d="M383 113.461V114.426C382.858 116.829 382.119 119.159 380.848 121.203C379.578 123.247 377.816 124.941 375.725 126.13L361.857 134.174L218.276 217.029C216.066 218.314 213.556 218.994 211 219C208.446 218.979 205.94 218.3 203.725 217.029L60.1436 134.174L46.2758 126.13C44.0525 124.86 42.2069 123.021 40.9284 120.802C39.6499 118.582 38.9844 116.063 39.0003 113.501C39.0038 110.948 39.6779 108.442 40.9549 106.232C42.2318 104.023 44.0667 102.188 46.2758 100.912L203.725 9.93224C205.941 8.66603 208.448 8 211 8C213.552 8 216.06 8.66603 218.276 9.93224L375.725 100.871C377.939 102.141 379.779 103.975 381.056 106.186C382.334 108.397 383.005 110.907 383 113.461Z" fill="#CBBAE4"/>
<path d="M80.8446 101.818L204.392 30.8025C206.462 29.6214 208.806 29 211.191 29C213.577 29 215.92 29.6214 217.99 30.8025L341.176 101.818C343.249 103 344.972 104.706 346.171 106.765C347.369 108.823 348 111.161 348 113.54C348 115.92 347.369 118.257 346.171 120.316C344.972 122.374 343.249 124.081 341.176 125.262L217.749 196.197C215.679 197.379 213.335 198 210.95 198C208.565 198 206.221 197.379 204.151 196.197L80.724 125.262C78.667 124.062 76.963 122.344 75.7829 120.28C74.6027 118.217 73.988 115.88 74.0002 113.505C74.0124 111.131 74.6513 108.801 75.8526 106.749C77.0539 104.698 78.7753 102.997 80.8446 101.818Z" fill="#7A63BA"/>
<path d="M211 218.685V260C208.449 259.993 205.943 259.327 203.724 258.065L46.276 167.011C44.0498 165.742 42.2019 163.899 40.9229 161.675C39.644 159.45 38.9803 156.923 39.0004 154.355V113C38.9845 115.567 39.65 118.092 40.9286 120.316C42.2071 122.541 44.0526 124.384 46.276 125.656L60.1437 133.718L203.724 216.751C205.944 218.01 208.45 218.677 211 218.685Z" fill="#7A63BA"/>
<path d="M382.999 114V154.298C383.025 156.877 382.365 159.417 381.086 161.655C379.807 163.894 377.956 165.75 375.724 167.032L218.275 258.066C216.062 259.341 213.553 260.008 211 260V218.735C213.556 218.729 216.065 218.048 218.275 216.76L361.856 133.746L375.724 125.686C377.81 124.498 379.568 122.808 380.838 120.767C382.109 118.727 382.851 116.401 382.999 114Z" fill="#36156A"/>
<path d="M94.2724 102.488L205.004 38.6126C206.835 37.5561 208.913 37 211.028 37C213.143 37 215.221 37.5561 217.053 38.6126L327.784 102.488C329.667 103.529 331.237 105.055 332.33 106.907C333.423 108.759 334 110.87 334 113.02C334 115.17 333.423 117.281 332.33 119.133C331.237 120.986 329.667 122.511 327.784 123.552L217.053 187.387C215.221 188.444 213.143 189 211.028 189C208.913 189 206.835 188.444 205.004 187.387L94.2322 123.592C92.3411 122.551 90.7648 121.021 89.6684 119.163C88.5721 117.304 87.9959 115.186 88 113.028C88.0041 110.871 88.5885 108.755 89.692 106.9C90.7954 105.046 92.3774 103.522 94.2724 102.488Z" fill="#7A63BA"/>
<path d="M53 154.697L107 186V176.902L53 146V154.697Z" fill="#F3E1FF"/>
</svg>
